<?xml version="1.0" encoding="utf-8"?>
<!-- Generator: Adobe Illustrator 17.0.0, SVG Export Plug-In . SVG Version: 6.00 Build 0)  -->
<!DOCTYPE svg PUBLIC "-//W3C//DTD SVG 1.1//EN" "http://www.w3.org/Graphics/SVG/1.1/DTD/svg11.dtd">
<svg version="1.1" id="Layer_1" xmlns="http://www.w3.org/2000/svg" xmlns:xlink="http://www.w3.org/1999/xlink" x="0px" y="0px"
	 width="50px" height="50px" viewBox="0 0 50 50" enable-background="new 0 0 50 50" xml:space="preserve">
<g>
	<g>
		<g>
			<g>
				<polygon fill="#989FA8" points="6.604,15.094 12.264,15.094 12.264,20.755 14.151,20.755 14.151,15.094 19.811,15.094 
					19.811,13.207 14.151,13.207 14.151,7.547 12.264,7.547 12.264,13.207 6.604,13.207 				"/>
				<polygon fill="#989FA8" points="8.919,41.997 12.922,37.994 17.591,42.664 18.925,41.33 14.256,36.66 18.258,32.658 
					16.924,31.324 12.922,35.326 9.586,31.991 8.252,33.325 11.587,36.66 7.585,40.663 				"/>
				
					<rect x="35.777" y="30.267" transform="matrix(-0.7071 -0.7071 0.7071 -0.7071 36.6145 88.9065)" fill="#989FA8" width="1.886" height="13.207"/>
				<rect x="30.188" y="13.207" fill="#989FA8" width="13.207" height="1.887"/>
				<path fill="#085977" d="M43.396,0H6.604C2.963,0,0,2.963,0,6.604v36.792C0,47.037,2.963,50,6.604,50h36.792
					C47.037,50,50,47.037,50,43.396V6.604C50,2.963,47.037,0,43.396,0z M24.528,48.113H6.604c-2.601,0-4.717-2.116-4.717-4.717
					V26.415h22.642L24.528,48.113L24.528,48.113z M24.528,24.528H1.887V6.604c0-2.601,2.116-4.718,4.717-4.718h17.925L24.528,24.528
					L24.528,24.528z M48.113,43.396c0,2.601-2.116,4.717-4.717,4.717H26.415V26.415h21.698V43.396L48.113,43.396z M48.113,24.528
					H26.415V1.887h16.981c2.601,0,4.717,2.116,4.717,4.718V24.528L48.113,24.528z"/>
			</g>
		</g>
	</g>
</g>
</svg>
