<?xml version="1.0" encoding="utf-8"?>
<!-- Generator: Adobe Illustrator 17.0.0, SVG Export Plug-In . SVG Version: 6.00 Build 0)  -->
<!DOCTYPE svg PUBLIC "-//W3C//DTD SVG 1.1//EN" "http://www.w3.org/Graphics/SVG/1.1/DTD/svg11.dtd">
<svg version="1.1" id="Layer_1" xmlns="http://www.w3.org/2000/svg" xmlns:xlink="http://www.w3.org/1999/xlink" x="0px" y="0px"
	 width="39.367px" height="50px" viewBox="0 0 39.367 50" enable-background="new 0 0 39.367 50" xml:space="preserve">
<g id="Organizer_1_">
	<g>
		<path fill="#085977" d="M38.586,37.005c0.432,0,0.781-0.35,0.781-0.781V0.782c0-0.431-0.349-0.781-0.781-0.781H8.355
			c-2.222,0-4.314,0.813-5.889,2.29C0.876,3.782,0,5.767,0,7.882v34.144c0,0.014,0.002,0.028,0.002,0.042
			C0.002,42.084,0,42.099,0,42.114c0,2.075,0.841,4.108,2.309,5.576c1.469,1.468,3.501,2.309,5.576,2.309h0.568h30.132
			c0.432,0,0.781-0.349,0.781-0.781s-0.349-0.781-0.781-0.781h-2.704V37.004h2.705V37.005z M37.805,1.562v33.88h-6.707V1.562H37.805
			z M1.563,7.881c0-1.678,0.7-3.259,1.971-4.451C4.8,2.243,6.558,1.562,8.355,1.562h21.18v33.88H6.669
			c-1.782,0-3.457,0.694-4.715,1.953c-0.138,0.138-0.267,0.283-0.391,0.431C1.563,37.827,1.563,7.881,1.563,7.881z M8.455,48.437
			c-1.825,0-3.608-0.69-4.892-1.895c-1.279-1.199-1.986-2.787-1.997-4.475c0.012-1.348,0.539-2.613,1.494-3.567
			c0.964-0.964,2.246-1.495,3.61-1.495h22.866v11.433H8.455V48.437z M34.32,48.437h-3.222V37.004h3.222V48.437z"/>
		<path fill="#989FA8" d="M25.726,39.916H8.538c-0.432,0-0.781,0.349-0.781,0.781s0.349,0.781,0.781,0.781h17.188
			c0.432,0,0.781-0.349,0.781-0.781C26.507,40.266,26.158,39.916,25.726,39.916z"/>
		<path fill="#989FA8" d="M25.726,43.822h-12.5c-0.432,0-0.781,0.349-0.781,0.781s0.349,0.781,0.781,0.781h12.5
			c0.432,0,0.781-0.349,0.781-0.781C26.507,44.172,26.158,43.822,25.726,43.822z"/>
	</g>
</g>
<g>
	<g>
		<path fill="#989FA8" d="M17.337,21.881c-0.356,0.544-0.768,0.945-1.234,1.2c-0.467,0.256-1.017,0.384-1.652,0.384
			c-1.024,0-1.803-0.279-2.338-0.836s-0.802-1.38-0.802-2.469c0-1.549,0.452-2.848,1.356-3.898c0.904-1.05,2.017-1.575,3.339-1.575
			c0.518,0,0.969,0.107,1.351,0.321c0.382,0.214,0.696,0.531,0.943,0.953l0.515-0.953h1.73l-1.429,5.813
			c-0.019,0.071-0.036,0.144-0.049,0.219c-0.013,0.075-0.019,0.135-0.019,0.18c0,0.227,0.078,0.397,0.233,0.51
			c0.156,0.113,0.385,0.17,0.69,0.17c0.253,0,0.517-0.065,0.792-0.194c0.275-0.13,0.533-0.311,0.773-0.544
			c0.557-0.518,0.98-1.124,1.268-1.818c0.288-0.693,0.433-1.455,0.433-2.284c0-1.555-0.601-2.833-1.803-3.835
			c-1.202-1.001-2.753-1.502-4.651-1.502c-0.914,0-1.764,0.11-2.552,0.331c-0.787,0.22-1.502,0.548-2.143,0.982
			c-1.102,0.739-1.949,1.662-2.542,2.77s-0.889,2.323-0.889,3.645c0,1.989,0.671,3.579,2.012,4.768
			c1.341,1.189,3.133,1.784,5.375,1.784c1.05,0,2.075-0.159,3.076-0.476c1.001-0.318,1.933-0.778,2.795-1.38l0.797,1.137
			c-0.991,0.745-2.043,1.306-3.154,1.682c-1.111,0.376-2.27,0.564-3.475,0.564c-1.244,0-2.388-0.157-3.431-0.471
			s-1.97-0.779-2.78-1.395c-1.004-0.784-1.756-1.688-2.255-2.712c-0.499-1.024-0.748-2.184-0.748-3.48
			c0-1.082,0.17-2.114,0.51-3.096s0.841-1.874,1.502-2.678c0.959-1.173,2.112-2.061,3.46-2.663c1.348-0.603,2.848-0.904,4.5-0.904
			c1.095,0,2.124,0.147,3.086,0.442c0.962,0.295,1.8,0.711,2.513,1.249c0.875,0.68,1.528,1.456,1.959,2.328s0.646,1.855,0.646,2.95
			c0,1.069-0.212,2.056-0.637,2.96c-0.424,0.904-1.035,1.677-1.832,2.318c-0.454,0.363-0.948,0.64-1.482,0.831
			c-0.535,0.191-1.09,0.287-1.667,0.287c-0.687,0-1.204-0.136-1.55-0.408C17.529,22.814,17.35,22.413,17.337,21.881z M17.823,17.721
			c-0.084-0.525-0.271-0.925-0.559-1.2c-0.288-0.275-0.669-0.413-1.142-0.413c-0.739,0-1.38,0.402-1.925,1.205
			c-0.544,0.804-0.817,1.769-0.817,2.897c0,0.596,0.131,1.05,0.394,1.361c0.262,0.311,0.643,0.467,1.142,0.467
			c0.538,0,1.029-0.204,1.473-0.612s0.747-0.94,0.909-1.594L17.823,17.721z"/>
	</g>
</g>
</svg>
