<?xml version="1.0" encoding="utf-8"?>
<!-- Generator: Adobe Illustrator 17.0.0, SVG Export Plug-In . SVG Version: 6.00 Build 0)  -->
<!DOCTYPE svg PUBLIC "-//W3C//DTD SVG 1.1//EN" "http://www.w3.org/Graphics/SVG/1.1/DTD/svg11.dtd">
<svg version="1.1" id="Capa_1" xmlns="http://www.w3.org/2000/svg" xmlns:xlink="http://www.w3.org/1999/xlink" x="0px" y="0px"
	 width="50px" height="50px" viewBox="0 0 50 50" enable-background="new 0 0 50 50" xml:space="preserve">
<g>
	<g>
		<path fill="#085977" d="M22.298,50C10.003,50,0.001,39.997,0.001,27.703c0-12.295,10.003-22.297,22.297-22.297
			c0.373,0,0.676,0.303,0.676,0.676v20.946H43.92c0.373,0,0.676,0.303,0.676,0.676C44.595,39.997,34.592,50,22.298,50z
			 M21.622,6.768C10.384,7.126,1.353,16.38,1.353,27.703c0,11.55,9.396,20.946,20.946,20.946c11.323,0,20.577-9.032,20.935-20.27
			H22.298c-0.373,0-0.676-0.303-0.676-0.676V6.768L21.622,6.768z"/>
		<path fill="#989FA8" d="M49.324,22.973H27.702c-0.373,0-0.676-0.303-0.676-0.676V0.675c0-0.373,0.303-0.676,0.676-0.676
			c12.295,0,22.297,10.003,22.297,22.297C50.001,22.671,49.698,22.973,49.324,22.973z M28.379,21.622h20.259
			C48.286,10.609,39.391,1.715,28.379,1.363V21.622z"/>
	</g>
</g>
</svg>
