<?xml version="1.0" encoding="utf-8"?>
<!-- Generator: Adobe Illustrator 17.0.0, SVG Export Plug-In . SVG Version: 6.00 Build 0)  -->
<!DOCTYPE svg PUBLIC "-//W3C//DTD SVG 1.1//EN" "http://www.w3.org/Graphics/SVG/1.1/DTD/svg11.dtd">
<svg version="1.1" id="Capa_1" xmlns="http://www.w3.org/2000/svg" xmlns:xlink="http://www.w3.org/1999/xlink" x="0px" y="0px"
	 width="29.803px" height="50px" viewBox="0 0 29.803 50" enable-background="new 0 0 29.803 50" xml:space="preserve">
<g>
	<g>
		<g>
			<path fill="#085977" d="M8.906,38.318c0,0,0.063,0.7,0.062,2.121H8.906v2.335l12.368-1.369c-0.011-0.387-0.02-0.688-0.024-0.845
				c-0.035-1.277-0.037-1.879-0.026-2.15c0.012-0.033,0.022-0.06,0.036-0.093h0.015c0,0-0.002-0.014-0.004-0.028
				c1.931-4.965,8.532-19.094,8.532-23.389C29.801,6.685,23.117-0.001,14.901-0.001S0,6.684,0,14.9
				c0,4.895,6.834,18.402,8.936,23.417L8.906,38.318L8.906,38.318z M14.902,2.116c7.051,0,12.788,5.735,12.788,12.786
				c0,3.63-6.003,16.538-8.638,23.262l-7.848,0.089c-2.775-6.548-9.088-19.154-9.088-23.35C2.115,7.851,7.85,2.116,14.902,2.116z"/>
			<path fill="#085977" d="M8.906,45.076c-0.051,0.035-0.093,0.607,0.12,1.345l12.201-1.351c0.004-0.088,0.009-0.164,0.02-0.221
				c0.045-0.288,0.06-0.924,0.058-1.625L8.907,44.598L8.906,45.076L8.906,45.076z"/>
			<path fill="#085977" d="M15.21,50.001c4.042,0.02,5.343-1.622,5.776-3.081L9.981,48.14C10.876,49.131,12.447,49.987,15.21,50.001
				z"/>
		</g>
	</g>
</g>
<g>
	<g>
		<path fill="#989FA8" d="M14.633,22.094c-0.008-0.074-0.014-0.154-0.018-0.24s-0.006-0.215-0.006-0.387
			c0-0.484,0.039-0.935,0.117-1.353s0.199-0.803,0.363-1.156c0.115-0.254,0.315-0.639,0.603-1.156
			c0.853-1.476,1.279-2.779,1.279-3.911c0-0.984-0.236-1.767-0.707-2.349c-0.472-0.582-1.109-0.873-1.912-0.873
			c-0.558,0-1.078,0.152-1.562,0.455c-0.484,0.303-0.726,0.57-0.726,0.799c0,0.107,0.131,0.209,0.394,0.307
			c0.262,0.098,0.451,0.181,0.566,0.246c0.426,0.262,0.73,0.531,0.91,0.805c0.18,0.275,0.271,0.596,0.271,0.965
			c0,0.533-0.187,0.98-0.56,1.34c-0.373,0.361-0.842,0.541-1.408,0.541c-0.615,0-1.121-0.232-1.519-0.695s-0.596-1.064-0.596-1.802
			c0-1.295,0.51-2.345,1.531-3.148c1.021-0.803,2.375-1.205,4.065-1.205c1.615,0,2.913,0.406,3.892,1.217
			c0.98,0.812,1.47,1.878,1.47,3.198c0,0.533-0.097,1.047-0.289,1.543c-0.193,0.496-0.474,0.953-0.842,1.371
			c-0.435,0.492-1.103,1.033-2.005,1.623c-0.344,0.221-0.59,0.385-0.738,0.492c-0.582,0.426-0.98,0.869-1.193,1.328
			s-0.32,1.091-0.32,1.894v0.16L14.633,22.094z M12.924,26.287c0-0.615,0.215-1.139,0.646-1.574c0.43-0.434,0.953-0.652,1.568-0.652
			c0.615,0,1.138,0.215,1.568,0.646c0.431,0.43,0.646,0.957,0.646,1.58c0,0.615-0.215,1.138-0.646,1.568
			c-0.43,0.43-0.953,0.646-1.568,0.646c-0.607,0-1.127-0.219-1.562-0.658C13.141,27.405,12.924,26.886,12.924,26.287z"/>
	</g>
</g>
</svg>
