<?xml version="1.0" encoding="utf-8"?>
<!-- Generator: Adobe Illustrator 17.0.0, SVG Export Plug-In . SVG Version: 6.00 Build 0)  -->
<!DOCTYPE svg PUBLIC "-//W3C//DTD SVG 1.1//EN" "http://www.w3.org/Graphics/SVG/1.1/DTD/svg11.dtd">
<svg version="1.1" id="Layer_1" xmlns="http://www.w3.org/2000/svg" xmlns:xlink="http://www.w3.org/1999/xlink" x="0px" y="0px"
	 width="39.278px" height="50px" viewBox="0 0 39.278 50" enable-background="new 0 0 39.278 50" xml:space="preserve">
<g transform="translate(0 -540.36)">
	<g>
		<g>
			<g>
				<path fill="#989FA8" d="M7.649,552.975c-0.35,0.443-0.278,1.093,0.165,1.444c0.186,0.165,0.402,0.237,0.629,0.237
					c0.309,0,0.608-0.134,0.814-0.392c1.525-1.939,3.556-3.218,5.875-3.723c0.556-0.124,0.907-0.67,0.794-1.227
					c-0.124-0.557-0.67-0.908-1.227-0.794C11.916,549.118,9.474,550.665,7.649,552.975z"/>
				<path fill="#085977" d="M8.268,576.21l-3.669,5.363c-0.32,0.474-0.206,1.114,0.268,1.434c0.175,0.124,0.381,0.186,0.577,0.186
					c0.33,0,0.66-0.155,0.855-0.443l1.422-2.073c2.907,1.454,6.061,2.238,9.266,2.31v5.311h-6.391c-0.567,0-1.031,0.464-1.031,1.031
					s0.464,1.031,1.031,1.031h14.843c0.567,0,1.031-0.464,1.031-1.031s-0.464-1.031-1.031-1.031h-6.391v-5.363
					c1.391-0.103,2.773-0.33,4.144-0.691c5.525-1.464,10.153-4.93,13.028-9.766c2.917-4.826,3.783-10.499,2.443-15.975
					c-1.258-5.126-4.329-9.571-8.689-12.603l1.299-1.929c0.32-0.474,0.196-1.114-0.278-1.434s-1.113-0.196-1.433,0.278l-3.69,5.487
					c-5.185-2.754-11.658-2.888-17.131,0.217c-4.051,2.29-6.937,6.023-8.143,10.488c-1.206,4.476-0.577,9.148,1.773,13.17
					C3.825,572.683,5.856,574.736,8.268,576.21z M8.896,578.933l1.206-1.753c0.917,0.413,1.886,0.763,2.886,1.021
					c1.484,0.382,2.989,0.578,4.494,0.578c3.051,0,6.061-0.784,8.782-2.331c4.082-2.32,6.999-6.064,8.205-10.54
					c1.185-4.435,0.567-9.065-1.763-13.046c-1.309-2.238-3.061-4.084-5.082-5.487l1.196-1.774
					c8.431,5.889,10.926,17.027,5.628,25.803C29.274,580.088,18.018,583.316,8.896,578.933L8.896,578.933z M4.155,569.136
					c-2.072-3.537-2.628-7.652-1.567-11.592c1.051-3.929,3.597-7.209,7.164-9.23c2.443-1.382,5.102-2.042,7.73-2.042
					c5.37,0,10.586,2.743,13.451,7.642c2.041,3.506,2.597,7.57,1.546,11.468c-1.062,3.94-3.639,7.24-7.236,9.282
					c-2.443,1.382-5.112,2.042-7.741,2.042C12.164,576.706,6.979,573.993,4.155,569.136z"/>
			</g>
		</g>
	</g>
</g>
</svg>
