<?xml version="1.0" encoding="utf-8"?>
<!-- Generator: Adobe Illustrator 17.0.0, SVG Export Plug-In . SVG Version: 6.00 Build 0)  -->
<!DOCTYPE svg PUBLIC "-//W3C//DTD SVG 1.1//EN" "http://www.w3.org/Graphics/SVG/1.1/DTD/svg11.dtd">
<svg version="1.1" id="Layer_1" xmlns="http://www.w3.org/2000/svg" xmlns:xlink="http://www.w3.org/1999/xlink" x="0px" y="0px"
	 width="50px" height="50px" viewBox="935 515 50 50" enable-background="new 935 515 50 50" xml:space="preserve">
<g>
	<g>
		<g>
			<path fill="#989FA8" d="M971.666,545.834c0-0.46-0.373-0.833-0.833-0.833h-5c-0.46,0-0.833,0.373-0.833,0.833
				s0.373,0.833,0.833,0.833h5C971.292,546.668,971.666,546.294,971.666,545.834z"/>
			<path fill="#085977" d="M968.332,524.168v-4.167c0-0.46-0.373-0.833-0.833-0.833s-0.833,0.373-0.833,0.833v4.167
				c0,2.297,1.869,4.167,4.167,4.167h7.5v15.833c0,0.46,0.373,0.833,0.833,0.833s0.833-0.373,0.833-0.833v-16.667
				c0-0.46-0.373-0.833-0.833-0.833h-8.333C969.454,526.668,968.332,525.546,968.332,524.168z"/>
			<path fill="#989FA8" d="M970.832,535.001h-6.667c-0.46,0-0.833,0.373-0.833,0.833s0.373,0.833,0.833,0.833h6.667
				c0.46,0,0.833-0.373,0.833-0.833C971.666,535.374,971.292,535.001,970.832,535.001z"/>
			<path fill="#989FA8" d="M961.666,535.834c0-0.46-0.373-0.833-0.833-0.833h-5c-0.46,0-0.833,0.373-0.833,0.833
				s0.373,0.833,0.833,0.833h5C961.292,536.668,961.666,536.294,961.666,535.834z"/>
			<path fill="#989FA8" d="M955.832,540.001c-0.46,0-0.833,0.373-0.833,0.833s0.373,0.833,0.833,0.833h1.667
				c0.46,0,0.833-0.373,0.833-0.833s-0.373-0.833-0.833-0.833H955.832L955.832,540.001z"/>
			<path fill="#989FA8" d="M955.832,531.668h8.333c0.46,0,0.833-0.373,0.833-0.833s-0.373-0.833-0.833-0.833h-8.333
				c-0.46,0-0.833,0.373-0.833,0.833S955.372,531.668,955.832,531.668z"/>
			<path fill="#989FA8" d="M960.832,541.668h8.333c0.46,0,0.833-0.373,0.833-0.833s-0.373-0.833-0.833-0.833h-8.333
				c-0.46,0-0.833,0.373-0.833,0.833S960.372,541.668,960.832,541.668z"/>
			<path fill="#989FA8" d="M965.832,550.001c-0.46,0-0.833,0.373-0.833,0.833s0.373,0.833,0.833,0.833h1.667
				c0.46,0,0.833-0.373,0.833-0.833s-0.373-0.833-0.833-0.833H965.832z"/>
			<path fill="#989FA8" d="M962.499,545.001h-6.667c-0.46,0-0.833,0.373-0.833,0.833s0.373,0.833,0.833,0.833h6.667
				c0.46,0,0.833-0.373,0.833-0.833S962.959,545.001,962.499,545.001z"/>
			<path fill="#989FA8" d="M962.499,550.001h-6.667c-0.46,0-0.833,0.373-0.833,0.833s0.373,0.833,0.833,0.833h6.667
				c0.46,0,0.833-0.373,0.833-0.833S962.959,550.001,962.499,550.001z"/>
			<path fill="#989FA8" d="M982.34,549.327l-1.667-1.667c-1.281-1.281-3.233-1.278-4.512,0l-10.918,10.918
				c-0.156,0.156-0.244,0.368-0.244,0.589v5c0,0.46,0.373,0.833,0.833,0.833h5c0.221,0,0.433-0.088,0.589-0.244l10.918-10.918
				C983.667,552.511,983.667,550.655,982.34,549.327z M975.084,551.094l1.322,1.322l-7.24,7.24l-1.322-1.322L975.084,551.094z
				 M966.666,563.334v-3.822l3.822,3.822H966.666z M971.666,562.156l-1.322-1.322l7.24-7.24l1.322,1.322L971.666,562.156z
				 M981.161,552.66l-1.078,1.078l-3.822-3.822l1.078-1.078c0.658-0.657,1.493-0.661,2.155,0l1.667,1.667
				C981.836,551.18,981.836,551.986,981.161,552.66z"/>
			<path fill="#085977" d="M962.499,563.334h-21.667c-1.378,0-2.5-1.122-2.5-2.5v-41.667c0-1.378,1.122-2.5,2.5-2.5h26.322
				l8.089,8.089c0.326,0.326,0.853,0.326,1.178,0c0.326-0.326,0.326-0.853,0-1.178l-8.333-8.333
				c-0.156-0.157-0.368-0.244-0.589-0.244h-26.667c-2.297,0-4.167,1.869-4.167,4.167v41.667c0,2.297,1.869,4.167,4.167,4.167h21.667
				c0.46,0,0.833-0.373,0.833-0.833S962.959,563.334,962.499,563.334z"/>
			<path fill="#989FA8" d="M962.499,555.001h-6.667c-0.46,0-0.833,0.373-0.833,0.833s0.373,0.833,0.833,0.833h6.667
				c0.46,0,0.833-0.373,0.833-0.833S962.959,555.001,962.499,555.001z"/>
			<path fill="#989FA8" d="M951.666,530.834c0-0.46-0.373-0.833-0.833-0.833h-5c-0.46,0-0.833,0.373-0.833,0.833v5
				c0,0.46,0.373,0.833,0.833,0.833h5c0.46,0,0.833-0.373,0.833-0.833V530.834z M949.999,535.001h-3.333v-3.333h3.333V535.001z"/>
			<path fill="#989FA8" d="M945.832,556.668h5c0.46,0,0.833-0.373,0.833-0.833v-5c0-0.46-0.373-0.833-0.833-0.833h-5
				c-0.46,0-0.833,0.373-0.833,0.833v5C944.999,556.294,945.372,556.668,945.832,556.668z M946.666,551.668h3.333v3.333h-3.333
				V551.668L946.666,551.668z"/>
			<path fill="#085977" d="M946.91,546.423c0.157,0.157,0.369,0.244,0.589,0.244c0.028,0,0.054-0.001,0.083-0.004
				c0.248-0.024,0.472-0.159,0.611-0.367l3.333-5c0.255-0.383,0.152-0.901-0.231-1.156c-0.384-0.256-0.9-0.152-1.156,0.231
				l-2.769,4.154l-0.948-0.947c-0.326-0.326-0.852-0.326-1.178,0s-0.326,0.853,0,1.178L946.91,546.423z"/>
		</g>
	</g>
</g>
</svg>
