<?xml version="1.0" encoding="utf-8"?>
<!-- Generator: Adobe Illustrator 17.0.0, SVG Export Plug-In . SVG Version: 6.00 Build 0)  -->
<!DOCTYPE svg PUBLIC "-//W3C//DTD SVG 1.1//EN" "http://www.w3.org/Graphics/SVG/1.1/DTD/svg11.dtd">
<svg version="1.1" id="Layer_1" xmlns="http://www.w3.org/2000/svg" xmlns:xlink="http://www.w3.org/1999/xlink" x="0px" y="0px"
	 width="60.412px" height="50px" viewBox="-5.206 0 60.412 50" enable-background="new -5.206 0 60.412 50" xml:space="preserve">
<g>
	<path fill="#085977" d="M42.246,36.159c-0.035-0.01-0.071-0.018-0.108-0.023l-7.378-1.107c-1.193-0.772-1.306-2.686-1.308-4.76
		c2.33-2.401,3.783-5.782,3.783-9.522v-0.303c1.808-1.606,2.837-3.884,2.837-6.318V8.453C40.073,3.792,36.281,0,31.62,0H19.325
		c-1.765,0-3.247,1.234-3.629,2.885c-3.246,0.392-5.77,3.164-5.77,6.514v4.729c0,2.434,1.029,4.712,2.837,6.318v0.303
		c0,3.74,1.453,7.12,3.783,9.522c-0.002,2.073-0.115,3.988-1.308,4.76l-7.378,1.107c-0.036,0.005-0.072,0.013-0.108,0.023
		c-1.623,0.455-3.003,1.461-3.993,2.91c-0.903,1.323-1.401,2.92-1.401,4.497v3.664c0,1.527,1.363,2.77,3.037,2.77h39.204
		c1.675,0,3.037-1.243,3.037-2.77v-3.664c0-1.577-0.497-3.174-1.401-4.497C45.25,37.62,43.869,36.614,42.246,36.159z M25,33.93
		c2.476,0,4.781-0.797,6.709-2.164c0.085,1.618,0.42,3.414,1.736,4.496C32.734,39.885,29.198,42.56,25,42.56
		s-7.734-2.675-8.446-6.298c1.316-1.082,1.651-2.878,1.736-4.496C20.219,33.133,22.524,33.93,25,33.93z M14.537,20.121
		c0.005-0.054,0.005-0.108,0-0.162v-4.885c0-1.597,1.299-2.896,2.896-2.896h16.078c0.49,0,0.887-0.397,0.887-0.887
		c0-0.49-0.397-0.887-0.887-0.887H17.434c-2.575,0-4.67,2.095-4.67,4.67v2.672c-0.688-1.065-1.064-2.313-1.064-3.618V9.399
		c0-2.64,2.148-4.788,4.788-4.788c0.49,0,0.887-0.397,0.887-0.887c0-1.076,0.875-1.951,1.951-1.951H31.62
		c3.683,0,6.68,2.996,6.68,6.68v5.675c0,1.305-0.376,2.553-1.064,3.618v-3.618c0-0.49-0.397-0.887-0.887-0.887
		c-0.49,0-0.887,0.397-0.887,0.887v6.62c0,6.291-4.694,11.408-10.463,11.408s-10.463-5.118-10.463-11.408
		C14.537,20.748,14.537,20.121,14.537,20.121z M45.866,47.23c0,0.54-0.579,0.997-1.264,0.997H5.398
		c-0.685,0-1.264-0.456-1.264-0.997v-3.664c0-2.247,1.39-4.911,4.047-5.685l6.69-1.004c0.992,4.308,5.184,7.456,10.129,7.456
		s9.137-3.147,10.129-7.456l6.69,1.004c2.657,0.773,4.047,3.437,4.047,5.685C45.866,43.566,45.866,47.23,45.866,47.23z"/>
	<path fill="#989FA8" d="M0.41,39.723h-3.337c-0.289,0-0.505-0.175-0.505-0.332v-2.37c0-1.331,0.815-2.907,2.373-3.372l4.827-0.724
		c0.021-0.003,0.041-0.008,0.062-0.012c0.009-0.002,0.018-0.003,0.027-0.005c0.033-0.008,0.065-0.019,0.096-0.031
		c0.008-0.003,0.015-0.006,0.022-0.01C4,32.856,4.025,32.844,4.05,32.831c0.004-0.002,0.008-0.004,0.012-0.006
		c0.008-0.004,0.015-0.009,0.023-0.013c0.007-0.004,0.013-0.008,0.02-0.012c1.074-0.613,1.446-1.723,1.574-2.807
		c1.177,0.698,2.529,1.097,3.966,1.097c1.206,0,2.369-0.274,3.456-0.815c0.438-0.218,0.617-0.75,0.399-1.189
		c-0.218-0.438-0.75-0.617-1.189-0.399c-0.839,0.417-1.736,0.629-2.666,0.629c-3.56,0-6.457-3.171-6.457-7.068v-3.782
		c0-0.861,0.7-1.561,1.561-1.561H7.03c0.49,0,0.887-0.397,0.887-0.887c0-0.49-0.397-0.887-0.887-0.887H4.749
		c-1.839,0-3.334,1.496-3.334,3.334v0.465c-0.077-0.312-0.118-0.636-0.118-0.966v-3.06c0-1.536,1.249-2.785,2.785-2.785
		c0.49,0,0.887-0.397,0.887-0.887c0-0.523,0.426-0.949,0.949-0.949H7.03c0.49,0,0.887-0.397,0.887-0.887
		c0-0.49-0.397-0.887-0.887-0.887H5.917c-1.214,0-2.245,0.799-2.595,1.899c-2.153,0.363-3.799,2.24-3.799,4.495v3.06
		c0,1.642,0.685,3.181,1.892,4.276v0.007c0,2.514,0.984,4.785,2.557,6.396c-0.01,1.128-0.096,2.138-0.653,2.553l-4.699,0.705
		c-0.036,0.005-0.072,0.013-0.108,0.023c-2.441,0.684-3.718,3.08-3.718,5.093v2.37c0,1.161,1.022,2.105,2.278,2.105H0.41
		c0.49,0,0.887-0.397,0.887-0.887C1.296,40.12,0.899,39.723,0.41,39.723z"/>
	<path fill="#989FA8" d="M51.488,31.927c-0.035-0.01-0.071-0.018-0.108-0.023l-4.699-0.705c-0.557-0.415-0.644-1.426-0.653-2.553
		c1.574-1.611,2.557-3.882,2.557-6.397v-0.007c1.206-1.096,1.892-2.634,1.892-4.277v-4.783c0-2.575-2.095-4.67-4.67-4.67H42.97
		c-0.49,0-0.887,0.397-0.887,0.887c0,0.49,0.397,0.887,0.887,0.887h2.837c1.597,0,2.896,1.299,2.896,2.896v4.784
		c0,0.33-0.041,0.654-0.118,0.966v-0.465c0-1.839-1.496-3.334-3.334-3.334H42.97c-0.49,0-0.887,0.397-0.887,0.887
		c0,0.49,0.397,0.887,0.887,0.887h2.281c0.861,0,1.561,0.7,1.561,1.561v3.782c0,3.897-2.896,7.068-6.456,7.068
		c-0.93,0-1.827-0.212-2.666-0.629c-0.439-0.218-0.971-0.039-1.189,0.399c-0.218,0.438-0.039,0.971,0.399,1.189
		c1.087,0.541,2.249,0.815,3.456,0.815c1.437,0,2.789-0.399,3.966-1.097c0.128,1.084,0.5,2.194,1.574,2.807
		c0.006,0.004,0.013,0.008,0.02,0.012c0.008,0.004,0.015,0.009,0.023,0.013c0.004,0.002,0.008,0.004,0.012,0.006
		c0.024,0.013,0.049,0.025,0.075,0.035c0.008,0.003,0.015,0.007,0.023,0.01c0.031,0.012,0.063,0.023,0.096,0.031
		c0.009,0.002,0.018,0.003,0.027,0.005c0.02,0.004,0.04,0.009,0.061,0.012l4.826,0.724c1.559,0.465,2.373,2.04,2.373,3.372v2.37
		c0,0.157-0.216,0.332-0.505,0.332H49.59c-0.49,0-0.887,0.397-0.887,0.887c0,0.49,0.397,0.887,0.887,0.887h3.337
		c1.256,0,2.278-0.944,2.278-2.105v-2.37C55.206,35.007,53.929,32.611,51.488,31.927z"/>
</g>
</svg>
