<?xml version="1.0" encoding="utf-8"?>
<!-- Generator: Adobe Illustrator 17.0.0, SVG Export Plug-In . SVG Version: 6.00 Build 0)  -->
<!DOCTYPE svg PUBLIC "-//W3C//DTD SVG 1.1//EN" "http://www.w3.org/Graphics/SVG/1.1/DTD/svg11.dtd">
<svg version="1.1" id="Layer_1" xmlns="http://www.w3.org/2000/svg" xmlns:xlink="http://www.w3.org/1999/xlink" x="0px" y="0px"
	 width="53.527px" height="50px" viewBox="0 0 53.527 50" enable-background="new 0 0 53.527 50" xml:space="preserve">
<g>
	<path id="App_Store" fill="none" stroke="#989FA8" stroke-miterlimit="10" d="M0.519,29.382v-7.123
		c0-0.652,0.536-1.186,1.193-1.186h12.587l-5.48,9.497H1.712C1.055,30.569,0.519,30.037,0.519,29.382z M9.485,43.967l-4.017,2.721
		c-0.54,0.367-0.923,0.135-0.848-0.514l0.536-4.656c0.075-0.649,0.601-0.914,1.169-0.589l3.109,1.776
		C10.002,43.031,10.025,43.601,9.485,43.967z M10.449,41.342L7.34,39.566c-0.568-0.325-0.769-1.053-0.438-1.619l14.395-24.953
		c0.327-0.567,1.063-0.766,1.631-0.437l3.109,1.772c0.569,0.329,0.764,1.057,0.438,1.622L12.08,40.906
		C11.754,41.472,11.017,41.666,10.449,41.342z M21.405,30.569l5.48-9.497h3.155l4.45,9.497H21.405z M39.252,33.403
		c-1.244-0.621-7.442-14.858-9.03-18.573c-1.59-3.715-6.39-13.602-4.837-14.372c1.104-0.552,5.07,7.234,8.042,11.909
		c2.968,4.675,9.176,16.727,9.94,18.1c0.76,1.376-0.731,2.523-1.56,2.867C40.977,33.677,40.496,34.02,39.252,33.403z M43.325,39.947
		l-1.873-2.945c-0.387-0.613-0.186-1.369,0.442-1.692l1.785-0.914c0.629-0.32,1.417-0.06,1.752,0.58l1.477,2.829
		c0.336,0.64,0.107,1.461-0.499,1.823l-1.276,0.76C44.528,40.753,43.712,40.554,43.325,39.947z M50.217,47.672
		c-0.391-1.248-3.379-1.33-4.716-3.209c-1.342-1.873-0.233-2.838,0.233-3.283C51.159,38.138,50.217,47.672,50.217,47.672z
		 M53.009,29.382c0,0.655-0.536,1.188-1.193,1.188h-6.3c-0.069-0.366-0.182-0.732-0.373-1.076c-0.164-0.292-0.579-1.081-1.156-2.179
		c-0.834-1.586-2.032-3.853-3.314-6.241h11.142c0.657,0,1.193,0.534,1.193,1.186L53.009,29.382L53.009,29.382L53.009,29.382z"/>
	<path id="App_Store_1_" fill="none" stroke="#085977" stroke-miterlimit="10" d="M9.485,43.967l-4.017,2.721
		c-0.54,0.367-0.923,0.135-0.848-0.514l0.536-4.656c0.075-0.649,0.601-0.914,1.169-0.589l3.109,1.776
		C10.002,43.031,10.025,43.601,9.485,43.967z M10.449,41.342L7.34,39.566c-0.568-0.325-0.769-1.053-0.438-1.619l14.395-24.953
		c0.327-0.567,1.063-0.766,1.631-0.437l3.109,1.772c0.569,0.329,0.764,1.057,0.438,1.622L12.08,40.906
		C11.754,41.472,11.017,41.666,10.449,41.342z M39.252,33.403c-1.244-0.621-7.442-14.858-9.03-18.573
		c-1.59-3.715-6.39-13.602-4.837-14.372c1.104-0.552,5.07,7.234,8.042,11.909c2.968,4.675,9.176,16.727,9.94,18.1
		c0.76,1.376-0.731,2.523-1.56,2.867C40.977,33.677,40.496,34.02,39.252,33.403z M43.325,39.947l-1.873-2.945
		c-0.387-0.613-0.186-1.369,0.442-1.692l1.785-0.914c0.629-0.32,1.417-0.06,1.752,0.58l1.477,2.829
		c0.336,0.64,0.107,1.461-0.499,1.823l-1.276,0.76C44.528,40.753,43.712,40.554,43.325,39.947z M50.217,47.672
		c-0.391-1.248-3.379-1.33-4.716-3.209c-1.342-1.873-0.233-2.838,0.233-3.283C51.159,38.138,50.217,47.672,50.217,47.672z"/>
</g>
</svg>
