<?xml version="1.0" encoding="utf-8"?>
<!-- Generator: Adobe Illustrator 17.0.0, SVG Export Plug-In . SVG Version: 6.00 Build 0)  -->
<!DOCTYPE svg PUBLIC "-//W3C//DTD SVG 1.1//EN" "http://www.w3.org/Graphics/SVG/1.1/DTD/svg11.dtd">
<svg version="1.1" id="Layer_1" xmlns="http://www.w3.org/2000/svg" xmlns:xlink="http://www.w3.org/1999/xlink" x="0px" y="0px"
	 width="50px" height="50px" viewBox="0 0 50 50" enable-background="new 0 0 50 50" xml:space="preserve">
<g transform="translate(0 -540.36)">
	<g>
		<g>
			<path fill="#085977" d="M48.436,572.143L48.436,572.143c-0.041-0.021-4.518-2.223-6.27-3.822c0,0-0.01-0.01-0.02-0.01
				c-1.598-1.404-2.715-3.371-3.893-5.451c-1.547-2.725-3.135-5.543-5.942-7.039c-0.02-0.01-0.031-0.021-0.051-0.031
				c-1.69-0.779-3.801-1.035-6.096-0.717c-1.742,0.236-3.514,0.789-5.082,1.578l-1.486-2.285c-0.307-0.471-0.943-0.605-1.414-0.297
				c-0.471,0.307-0.605,0.943-0.297,1.414l1.434,2.203c-3.514,2.377-5.43,5.359-5.83,9.088c0,0.031,0,0.051-0.01,0.082
				c-0.092,3.238,1.557,6.055,3.156,8.781c1.25,2.131,2.428,4.139,2.818,6.301c0.441,2.326-0.082,7.244-0.092,7.285
				c-0.041,0.389,0.133,0.758,0.461,0.973c0.164,0.113,0.359,0.164,0.553,0.164c0.184,0,0.359-0.051,0.523-0.143l9.877-5.82
				c0.932,1.055,2.315,1.742,3.74,1.814h0.061c1.711,0,3.289-0.881,4.303-2.408c0.768-1.148,0.84-2.889,0.277-4.344l9.344-5.512
				c0.328-0.195,0.523-0.543,0.502-0.922C48.979,572.645,48.774,572.307,48.436,572.143z M18.396,574.602
				c-1.506-2.582-2.94-5.01-2.879-7.643l0,0c0.379-3.402,2.213-5.973,5.768-8.105c2.787-1.629,7.131-2.561,10.082-1.219
				c2.264,1.219,3.647,3.658,5.102,6.229c0.973,1.721,1.977,3.484,3.289,4.959l-18.801,10.861
				C20.332,577.901,19.349,576.231,18.396,574.602z M37.166,582.665L37.166,582.665c-0.369,0.553-1.189,1.486-2.572,1.496
				c-0.727-0.051-1.455-0.359-1.998-0.84l4.754-2.807C37.576,581.323,37.483,582.194,37.166,582.665z M21.562,587.45
				c0.113-1.701,0.195-4.109-0.072-5.717l19.825-11.445c1.291,1.014,3.186,2.111,4.549,2.838L21.562,587.45z"/>
			<path fill="#989FA8" d="M9.247,563.208c0-0.564-0.461-1.025-1.025-1.025H2.023c-0.564,0-1.025,0.461-1.025,1.025
				s0.461,1.025,1.025,1.025h6.199C8.786,564.233,9.247,563.772,9.247,563.208z"/>
			<path fill="#989FA8" d="M32.299,548.587c0.256,0,0.523-0.102,0.717-0.297l4.16-4.15c0.4-0.4,0.4-1.045,0-1.445
				s-1.045-0.4-1.445,0l-4.16,4.15c-0.4,0.4-0.4,1.045,0,1.445C31.777,548.485,32.033,548.587,32.299,548.587z"/>
			<path fill="#989FA8" d="M40.69,556.958L40.69,556.958c0.102,0,0.215-0.021,0.328-0.062l6.199-2.111
				c0.533-0.184,0.82-0.768,0.635-1.301s-0.768-0.82-1.301-0.635l-6.199,2.111c-0.533,0.184-0.82,0.768-0.635,1.301
				C39.871,556.692,40.26,556.958,40.69,556.958z"/>
			<path fill="#989FA8" d="M8.601,572.962l-4.231,4.15c-0.4,0.389-0.41,1.045-0.01,1.445c0.195,0.205,0.461,0.307,0.727,0.307l0,0
				c0.256,0,0.512-0.102,0.717-0.297l4.231-4.15c0.4-0.389,0.41-1.045,0.01-1.445C9.656,572.573,9.001,572.563,8.601,572.962z"/>
			<path fill="#989FA8" d="M8.591,552.511c0.205,0.195,0.461,0.297,0.727,0.297l0,0c0.266,0,0.533-0.092,0.717-0.297
				c0.4-0.4,0.4-1.045,0-1.445l-4.231-4.221c-0.4-0.4-1.045-0.4-1.445,0c-0.4,0.4-0.4,1.045,0,1.445L8.591,552.511z"/>
			<path fill="#989FA8" d="M18.744,546.743c0.092,0.492,0.523,0.83,1.004,0.83c0.072,0,0.133-0.01,0.195-0.021
				c0.553-0.102,0.922-0.646,0.809-1.199l-1.014-5.164c-0.102-0.553-0.645-0.922-1.199-0.809c-0.553,0.102-0.922,0.646-0.809,1.199
				L18.744,546.743z"/>
		</g>
	</g>
</g>
</svg>
