<?xml version="1.0" encoding="utf-8"?>
<!-- Generator: Adobe Illustrator 17.0.0, SVG Export Plug-In . SVG Version: 6.00 Build 0)  -->
<!DOCTYPE svg PUBLIC "-//W3C//DTD SVG 1.1//EN" "http://www.w3.org/Graphics/SVG/1.1/DTD/svg11.dtd">
<svg version="1.1" id="Layer_1" xmlns="http://www.w3.org/2000/svg" xmlns:xlink="http://www.w3.org/1999/xlink" x="0px" y="0px"
	 width="100px" height="32.691px" viewBox="0 0 100 32.691" enable-background="new 0 0 100 32.691" xml:space="preserve">
<g>
	<path d="M99.999,28.291c0,2.441-1.979,4.421-4.419,4.421H4.421c-2.441,0-4.42-1.98-4.42-4.421V4.421C0.001,1.98,1.98,0,4.421,0
		h91.16c2.441,0,4.419,1.98,4.419,4.421V28.291L99.999,28.291z"/>
</g>
<g>
	<g>
		<path fill="#FFFFFF" d="M22.903,18.249c-0.607-3.057,2.294-4.85,2.294-4.85s-1.131-1.636-3.031-2.057
			c-1.899-0.422-2.85,0.105-3.798,0.5c-0.95,0.396-1.423,0.396-1.423,0.396c-1.37,0-2.372-1.451-4.983-0.79
			c-1.799,0.454-3.692,2.53-4.034,5.009c-0.342,2.479,0.396,5.643,1.82,8.094c1.423,2.454,2.873,3.376,3.903,3.402
			c1.029,0.026,2.057-0.737,3.295-0.923c1.24-0.184,2.003,0.449,3.218,0.791c1.211,0.341,1.636,0.025,3.031-1.162
			c1.399-1.187,2.665-4.59,2.665-4.59S23.511,21.308,22.903,18.249z"/>
		<path fill="#FFFFFF" d="M20.214,9.364c1.346-1.371,0.89-3.494,0.89-3.494s-1.89,0.332-3.156,1.649
			c-1.265,1.318-1.056,3.4-1.056,3.4S18.868,10.735,20.214,9.364z"/>
	</g>
</g>
<g>
	<path fill="#FFFFFF" d="M38.419,9.787c0,0.859-0.225,1.508-0.675,1.948c-0.451,0.44-1.112,0.66-1.985,0.66h-1.225V7.277h1.383
		c0.817,0,1.438,0.213,1.864,0.641S38.419,8.968,38.419,9.787z M38.031,9.801c0-0.732-0.186-1.284-0.558-1.654
		c-0.373-0.37-0.919-0.555-1.64-0.555h-0.942v4.488h0.847C37.267,12.08,38.031,11.321,38.031,9.801z"/>
	<path fill="#FFFFFF" d="M42.655,10.488c0,0.621-0.15,1.105-0.452,1.455c-0.301,0.349-0.716,0.523-1.246,0.523
		c-0.334,0-0.628-0.081-0.882-0.241c-0.254-0.161-0.449-0.392-0.584-0.693c-0.135-0.301-0.203-0.649-0.203-1.043
		c0-0.621,0.15-1.104,0.452-1.451s0.714-0.52,1.239-0.52c0.523,0,0.933,0.176,1.23,0.527C42.507,9.395,42.655,9.876,42.655,10.488z
		 M39.652,10.488c0,0.522,0.115,0.931,0.345,1.223c0.23,0.293,0.555,0.439,0.975,0.439c0.42,0,0.745-0.146,0.975-0.439
		c0.23-0.292,0.345-0.701,0.345-1.223c0-0.525-0.116-0.933-0.349-1.222c-0.232-0.289-0.558-0.434-0.979-0.434
		c-0.42,0-0.744,0.145-0.971,0.433S39.652,9.96,39.652,10.488z"/>
	<path fill="#FFFFFF" d="M46.751,12.395L45.918,9.85c-0.054-0.173-0.123-0.426-0.207-0.76h-0.021l-0.074,0.259L45.46,9.857
		l-0.847,2.538H44.27L43.181,8.59h0.371l0.609,2.206c0.142,0.546,0.235,0.947,0.28,1.204h0.021c0.138-0.546,0.238-0.909,0.301-1.089
		l0.784-2.321h0.315l0.746,2.314c0.168,0.548,0.271,0.911,0.308,1.089h0.021c0.019-0.152,0.112-0.558,0.28-1.219l0.581-2.184h0.35
		l-1.033,3.805H46.751z"/>
	<path fill="#FFFFFF" d="M51.548,12.395V9.927c0-0.382-0.081-0.661-0.242-0.834s-0.41-0.261-0.749-0.261
		c-0.455,0-0.788,0.115-1,0.345c-0.21,0.229-0.316,0.603-0.316,1.118v2.101h-0.347V8.59h0.294l0.066,0.521h0.021
		c0.248-0.397,0.688-0.595,1.32-0.595c0.863,0,1.295,0.463,1.295,1.39v2.489H51.548z"/>
	<path fill="#FFFFFF" d="M53.469,12.395h-0.347V6.948h0.347V12.395z"/>
	<path fill="#FFFFFF" d="M57.891,10.488c0,0.621-0.15,1.105-0.451,1.455c-0.302,0.349-0.717,0.523-1.246,0.523
		c-0.334,0-0.628-0.081-0.883-0.241c-0.254-0.161-0.449-0.392-0.584-0.693c-0.136-0.301-0.203-0.649-0.203-1.043
		c0-0.621,0.15-1.104,0.451-1.451s0.714-0.52,1.239-0.52c0.522,0,0.933,0.176,1.23,0.527C57.742,9.395,57.891,9.876,57.891,10.488z
		 M54.887,10.488c0,0.522,0.115,0.931,0.346,1.223c0.229,0.293,0.555,0.439,0.975,0.439s0.745-0.146,0.975-0.439
		c0.23-0.292,0.345-0.701,0.345-1.223c0-0.525-0.116-0.933-0.348-1.222C56.946,8.976,56.62,8.831,56.2,8.831
		s-0.744,0.145-0.972,0.433S54.887,9.96,54.887,10.488z"/>
	<path fill="#FFFFFF" d="M61.255,12.395l-0.087-0.602H61.14c-0.191,0.245-0.388,0.418-0.59,0.52
		c-0.202,0.101-0.44,0.152-0.716,0.152c-0.373,0-0.664-0.096-0.872-0.287c-0.207-0.191-0.312-0.456-0.312-0.794
		c0-0.371,0.155-0.659,0.464-0.865c0.31-0.205,0.757-0.314,1.343-0.326l0.725-0.021V9.92c0-0.362-0.073-0.635-0.221-0.819
		c-0.146-0.184-0.384-0.276-0.71-0.276c-0.353,0-0.718,0.098-1.096,0.294l-0.13-0.301c0.418-0.196,0.831-0.294,1.239-0.294
		c0.418,0,0.729,0.109,0.937,0.326c0.206,0.217,0.31,0.556,0.31,1.015v2.531H61.255z M59.854,12.15c0.406,0,0.727-0.116,0.961-0.348
		c0.235-0.232,0.353-0.555,0.353-0.968v-0.375l-0.665,0.028c-0.535,0.025-0.916,0.109-1.144,0.25s-0.341,0.361-0.341,0.66
		c0,0.238,0.072,0.423,0.219,0.555C59.383,12.084,59.589,12.15,59.854,12.15z"/>
	<path fill="#FFFFFF" d="M64.136,8.516c0.275,0,0.514,0.05,0.714,0.15c0.201,0.101,0.381,0.272,0.54,0.515h0.021
		c-0.014-0.294-0.021-0.582-0.021-0.865V6.948h0.343v5.447h-0.228l-0.088-0.581H65.39c-0.29,0.434-0.705,0.651-1.247,0.651
		c-0.524,0-0.926-0.163-1.204-0.49c-0.277-0.327-0.416-0.803-0.416-1.429c0-0.658,0.138-1.161,0.413-1.509
		C63.211,8.69,63.61,8.516,64.136,8.516z M64.136,8.831c-0.415,0-0.728,0.146-0.937,0.438c-0.209,0.292-0.313,0.715-0.313,1.271
		c0,1.078,0.419,1.617,1.257,1.617c0.43,0,0.745-0.125,0.945-0.375c0.201-0.25,0.302-0.662,0.302-1.236v-0.059
		c0-0.588-0.099-1.011-0.296-1.269S64.577,8.831,64.136,8.831z"/>
	<path fill="#FFFFFF" d="M72.02,10.488c0,0.621-0.15,1.105-0.451,1.455c-0.302,0.349-0.717,0.523-1.246,0.523
		c-0.334,0-0.628-0.081-0.883-0.241c-0.254-0.161-0.449-0.392-0.584-0.693c-0.136-0.301-0.203-0.649-0.203-1.043
		c0-0.621,0.15-1.104,0.451-1.451s0.714-0.52,1.239-0.52c0.522,0,0.933,0.176,1.23,0.527C71.871,9.395,72.02,9.876,72.02,10.488z
		 M69.016,10.488c0,0.522,0.115,0.931,0.346,1.223c0.229,0.293,0.555,0.439,0.975,0.439s0.745-0.146,0.975-0.439
		c0.23-0.292,0.345-0.701,0.345-1.223c0-0.525-0.116-0.933-0.348-1.222c-0.232-0.289-0.559-0.434-0.979-0.434
		s-0.744,0.145-0.972,0.433S69.016,9.96,69.016,10.488z"/>
	<path fill="#FFFFFF" d="M75.728,12.395V9.927c0-0.382-0.081-0.661-0.242-0.834s-0.41-0.261-0.749-0.261
		c-0.455,0-0.788,0.115-0.999,0.345c-0.212,0.229-0.317,0.603-0.317,1.118v2.101h-0.347V8.59h0.295l0.066,0.521h0.021
		c0.247-0.397,0.688-0.595,1.32-0.595c0.863,0,1.295,0.463,1.295,1.39v2.489H75.728z"/>
	<path fill="#FFFFFF" d="M80.169,12.157c0.22,0,0.411-0.019,0.574-0.056v0.28c-0.168,0.056-0.361,0.084-0.581,0.084
		c-0.336,0-0.584-0.09-0.744-0.27c-0.159-0.18-0.239-0.462-0.239-0.847V8.891h-0.563V8.688l0.563-0.157l0.175-0.861h0.179V8.59
		h1.116v0.301h-1.116V11.3c0,0.292,0.051,0.508,0.154,0.647C79.789,12.087,79.95,12.157,80.169,12.157z"/>
	<path fill="#FFFFFF" d="M84.22,12.395V9.927c0-0.382-0.081-0.661-0.242-0.834s-0.41-0.261-0.749-0.261
		c-0.455,0-0.788,0.115-0.999,0.345c-0.212,0.229-0.317,0.603-0.317,1.118v2.101h-0.347V6.948h0.347v1.733l-0.018,0.487h0.024
		c0.143-0.229,0.322-0.395,0.54-0.497c0.217-0.103,0.486-0.154,0.809-0.154c0.863,0,1.295,0.463,1.295,1.39v2.489H84.22z"/>
	<path fill="#FFFFFF" d="M87.332,12.465c-0.553,0-0.984-0.17-1.293-0.511c-0.31-0.341-0.464-0.818-0.464-1.432
		c0-0.606,0.149-1.093,0.447-1.458c0.299-0.365,0.702-0.548,1.208-0.548c0.448,0,0.802,0.156,1.061,0.469
		c0.26,0.313,0.389,0.737,0.389,1.274v0.28h-2.741c0.005,0.523,0.127,0.922,0.366,1.197s0.582,0.413,1.027,0.413
		c0.217,0,0.408-0.015,0.572-0.045c0.165-0.03,0.373-0.096,0.625-0.196v0.315c-0.215,0.093-0.413,0.157-0.595,0.19
		C87.752,12.449,87.552,12.465,87.332,12.465z M87.23,8.825c-0.366,0-0.66,0.121-0.882,0.362s-0.352,0.59-0.389,1.045h2.353
		c0-0.441-0.096-0.786-0.287-1.034S87.569,8.825,87.23,8.825z"/>
</g>
<g>
	<path fill="#FFFFFF" d="M38.034,24.185l-1.189-3.039h-3.829l-1.176,3.039h-1.124l3.777-9.593h0.935l3.758,9.593H38.034z
		 M36.498,20.147l-1.111-2.961c-0.144-0.375-0.292-0.834-0.444-1.378c-0.096,0.418-0.233,0.878-0.412,1.378l-1.124,2.961H36.498z"/>
	<path fill="#FFFFFF" d="M43.667,24.316c-0.466,0-0.892-0.086-1.278-0.258c-0.385-0.173-0.709-0.438-0.97-0.795H41.34
		c0.053,0.419,0.079,0.815,0.079,1.189V27.4h-1.085V17.023h0.882l0.15,0.98h0.052c0.279-0.393,0.604-0.676,0.974-0.85
		s0.795-0.262,1.274-0.262c0.95,0,1.683,0.325,2.199,0.974c0.517,0.649,0.774,1.56,0.774,2.731c0,1.177-0.262,2.091-0.787,2.741
		C45.328,23.99,44.599,24.316,43.667,24.316z M43.51,17.814c-0.732,0-1.261,0.202-1.588,0.607c-0.327,0.405-0.495,1.05-0.503,1.935
		v0.241c0,1.007,0.167,1.727,0.503,2.16c0.335,0.434,0.873,0.65,1.614,0.65c0.619,0,1.104-0.251,1.454-0.752
		s0.526-1.191,0.526-2.071c0-0.894-0.175-1.578-0.526-2.056C44.64,18.053,44.146,17.814,43.51,17.814z"/>
	<path fill="#FFFFFF" d="M51.867,24.316c-0.466,0-0.892-0.086-1.277-0.258c-0.385-0.173-0.709-0.438-0.971-0.795h-0.078
		c0.053,0.419,0.078,0.815,0.078,1.189V27.4h-1.084V17.023h0.882l0.15,0.98h0.052c0.279-0.393,0.604-0.676,0.975-0.85
		c0.37-0.174,0.795-0.262,1.273-0.262c0.95,0,1.684,0.325,2.199,0.974c0.517,0.649,0.774,1.56,0.774,2.731
		c0,1.177-0.263,2.091-0.787,2.741C53.528,23.99,52.8,24.316,51.867,24.316z M51.711,17.814c-0.732,0-1.262,0.202-1.588,0.607
		c-0.327,0.405-0.494,1.05-0.504,1.935v0.241c0,1.007,0.168,1.727,0.504,2.16c0.335,0.434,0.873,0.65,1.614,0.65
		c0.618,0,1.103-0.251,1.453-0.752c0.352-0.501,0.526-1.191,0.526-2.071c0-0.894-0.175-1.578-0.526-2.056
		C52.84,18.053,52.347,17.814,51.711,17.814z"/>
	<path fill="#FFFFFF" d="M65.768,21.643c0,0.841-0.306,1.496-0.915,1.967c-0.61,0.471-1.438,0.706-2.483,0.706
		c-1.133,0-2.004-0.146-2.614-0.438v-1.071c0.393,0.166,0.819,0.296,1.281,0.393c0.462,0.096,0.919,0.144,1.372,0.144
		c0.74,0,1.298-0.141,1.673-0.422s0.563-0.672,0.563-1.173c0-0.331-0.066-0.603-0.199-0.813c-0.134-0.211-0.355-0.406-0.667-0.585
		s-0.785-0.381-1.421-0.607c-0.889-0.318-1.524-0.695-1.905-1.131s-0.572-1.004-0.572-1.705c0-0.737,0.277-1.323,0.83-1.758
		c0.554-0.436,1.285-0.653,2.196-0.653c0.949,0,1.823,0.174,2.62,0.522l-0.347,0.967c-0.788-0.331-1.555-0.497-2.3-0.497
		c-0.588,0-1.048,0.126-1.379,0.379c-0.331,0.253-0.497,0.604-0.497,1.052c0,0.331,0.062,0.603,0.184,0.813s0.327,0.405,0.617,0.582
		c0.29,0.176,0.733,0.371,1.33,0.585c1.002,0.356,1.691,0.74,2.068,1.149C65.579,20.459,65.768,20.99,65.768,21.643z"/>
	<path fill="#FFFFFF" d="M69.871,23.421c0.191,0,0.376-0.014,0.555-0.042s0.32-0.058,0.425-0.089v0.83
		c-0.117,0.057-0.291,0.104-0.52,0.141s-0.435,0.056-0.617,0.056c-1.386,0-2.078-0.729-2.078-2.189v-4.261h-1.026v-0.522
		l1.026-0.451l0.457-1.529h0.628v1.66h2.078v0.843h-2.078v4.215c0,0.432,0.103,0.763,0.307,0.993
		C69.232,23.305,69.514,23.421,69.871,23.421z"/>
	<path fill="#FFFFFF" d="M78.464,20.597c0,1.168-0.294,2.079-0.882,2.735c-0.589,0.655-1.401,0.983-2.438,0.983
		c-0.641,0-1.209-0.15-1.706-0.451c-0.496-0.301-0.88-0.731-1.15-1.294c-0.27-0.562-0.404-1.22-0.404-1.974
		c0-1.167,0.291-2.076,0.875-2.728s1.395-0.978,2.431-0.978c1.002,0,1.799,0.333,2.389,1C78.169,18.559,78.464,19.461,78.464,20.597
		z M73.007,20.597c0,0.915,0.184,1.612,0.55,2.092c0.365,0.479,0.903,0.719,1.613,0.719s1.25-0.239,1.618-0.716
		c0.367-0.478,0.552-1.175,0.552-2.095c0-0.91-0.185-1.602-0.552-2.074c-0.368-0.473-0.912-0.709-1.631-0.709
		c-0.71,0-1.246,0.232-1.607,0.699C73.188,18.979,73.007,19.675,73.007,20.597z"/>
	<path fill="#FFFFFF" d="M83.634,16.892c0.317,0,0.603,0.026,0.855,0.078l-0.15,1.007c-0.296-0.065-0.558-0.098-0.784-0.098
		c-0.579,0-1.075,0.235-1.486,0.705c-0.412,0.471-0.617,1.057-0.617,1.758v3.843h-1.085v-7.162h0.895l0.125,1.326h0.052
		c0.266-0.466,0.586-0.825,0.961-1.078C82.772,17.019,83.185,16.892,83.634,16.892z"/>
	<path fill="#FFFFFF" d="M88.854,24.316c-1.059,0-1.895-0.322-2.506-0.968c-0.612-0.645-0.918-1.539-0.918-2.686
		c0-1.154,0.284-2.071,0.853-2.751s1.332-1.02,2.29-1.02c0.897,0,1.607,0.295,2.131,0.886c0.522,0.59,0.784,1.369,0.784,2.336v0.687
		h-4.935c0.022,0.841,0.234,1.479,0.638,1.914c0.402,0.437,0.971,0.654,1.702,0.654c0.771,0,1.533-0.161,2.287-0.484v0.968
		c-0.383,0.165-0.746,0.284-1.088,0.355C89.751,24.28,89.338,24.316,88.854,24.316z M88.561,17.801
		c-0.575,0-1.034,0.188-1.376,0.563s-0.543,0.893-0.604,1.555h3.745c0-0.684-0.153-1.207-0.458-1.571
		C89.563,17.983,89.127,17.801,88.561,17.801z"/>
</g>
</svg>
