<?xml version="1.0" encoding="utf-8"?>
<!-- Generator: Adobe Illustrator 17.0.0, SVG Export Plug-In . SVG Version: 6.00 Build 0)  -->
<!DOCTYPE svg PUBLIC "-//W3C//DTD SVG 1.1//EN" "http://www.w3.org/Graphics/SVG/1.1/DTD/svg11.dtd">
<svg version="1.1" id="Layer_1" xmlns="http://www.w3.org/2000/svg" xmlns:xlink="http://www.w3.org/1999/xlink" x="0px" y="0px"
	 width="297.999px" height="255.067px" viewBox="0 0 297.999 255.067" enable-background="new 0 0 297.999 255.067"
	 xml:space="preserve">
<path opacity="0.5" fill-rule="evenodd" clip-rule="evenodd" d="M489.333,9.333v116.737l-162,0.262
	c-5.259,9.939-8.258,30.309-9,52.151v21.699c0.742,21.841,3.741,42.211,9,52.151c17.731,0,178.561-0.89,187.591,0.409
	c24.233,3.484,64.848,3.239,87.81-2.007c7.34-1.677,8.417-1.932,13.598-5.401v-236C596.705-3.81,506.843-2.392,489.333,9.333"/>
<path fill-rule="evenodd" clip-rule="evenodd" d="M489.386,247.212c5.251,2.387,17.096,4.631,23.432,5.284
	c17.531,1.806,59.156,5.266,89.916-1.762c7.34-1.677,8.417-1.932,13.598-5.401v-236c-19.627-13.143-109.49-11.725-127,0"/>
<polygon fill-rule="evenodd" clip-rule="evenodd" fill="#F27F7A" points="26.229,248.48 150.539,248.352 150.44,150.244 
	26.108,150.293 "/>
<g opacity="0.5">
	<path d="M0,158.138l0,82.409c0,7.943,6.468,14.411,14.411,14.411h167.464c7.946,0,14.414-6.468,14.414-14.411v-82.405
		c0-7.946-6.468-14.414-14.411-14.414H14.411C6.468,143.727,0,150.195,0,158.138z M26.172,248.415V150.27h124.316v98.144H26.172z"/>
	<path fill="#F27F7A" d="M160.302,199.342c0,7.217,5.869,13.086,13.086,13.086s13.086-5.869,13.086-13.086
		s-5.869-13.086-13.086-13.086S160.302,192.125,160.302,199.342z M179.931,199.342c0,3.608-2.935,6.543-6.543,6.543
		s-6.543-2.935-6.543-6.543s2.935-6.543,6.543-6.543S179.931,195.734,179.931,199.342z"/>
</g>
<polygon fill-rule="evenodd" clip-rule="evenodd" fill="#F27F7A" points="160.338,200.726 293.345,200.502 293.24,28.878 
	160.208,28.964 "/>
<g>
	<path d="M279.871,0H172.784c-10.322,0-18.726,8.405-18.726,18.726v217.613c0,10.326,8.405,18.731,18.726,18.731h107.083
		c10.326,0,18.731-8.405,18.731-18.726V18.726C298.597,8.405,290.192,0,279.871,0z M162.56,34.009h127.535v161.544H162.56V34.009z"
		/>
	<path fill="#F27F7A" d="M226.327,208.307c-9.378,0-17.005,7.627-17.005,17.005c0,9.378,7.627,17.005,17.005,17.005
		c9.378,0,17.005-7.627,17.005-17.005C243.332,215.934,235.705,208.307,226.327,208.307z M226.327,233.814
		c-4.689,0-8.502-3.813-8.502-8.502s3.813-8.502,8.502-8.502s8.502,3.813,8.502,8.502S231.016,233.814,226.327,233.814z"/>
	<path fill="#F27F7A" d="M209.322,21.256h17.005c2.351,0,4.251-1.9,4.251-4.251s-1.9-4.251-4.251-4.251h-17.005
		c-2.351,0-4.251,1.9-4.251,4.251S206.972,21.256,209.322,21.256z"/>
	<path fill="#F27F7A" d="M239.081,21.256h4.251c2.351,0,4.251-1.9,4.251-4.251s-1.9-4.251-4.251-4.251h-4.251
		c-2.351,0-4.251,1.9-4.251,4.251S236.73,21.256,239.081,21.256z"/>
</g>
<path opacity="0.5" d="M121.707,49.736c1.851-1.851,1.851-4.793,0-6.644l-17.844-17.844c-1.851-1.851-4.793-1.851-6.644,0
	c-1.851,1.851-1.851,4.793,0,6.644l9.824,9.824H74.344c-24.821,0-45.038,20.217-45.038,45.038v21.119
	c0,2.61,2.088,4.698,4.698,4.698s4.698-2.088,4.698-4.698V86.801c0-19.648,15.993-35.641,35.641-35.641h32.699l-9.824,9.824
	c-1.851,1.851-1.851,4.793,0,6.644c0.902,0.902,2.136,1.376,3.322,1.376c1.186,0,2.42-0.475,3.322-1.376L121.707,49.736z"/>
</svg>
