<?xml version="1.0" encoding="utf-8"?>
<!-- Generator: Adobe Illustrator 17.0.0, SVG Export Plug-In . SVG Version: 6.00 Build 0)  -->
<!DOCTYPE svg PUBLIC "-//W3C//DTD SVG 1.1//EN" "http://www.w3.org/Graphics/SVG/1.1/DTD/svg11.dtd">
<svg version="1.1" id="Layer_1" xmlns="http://www.w3.org/2000/svg" xmlns:xlink="http://www.w3.org/1999/xlink" x="0px" y="0px"
	 width="144px" height="144px" viewBox="54 0 144 144" enable-background="new 54 0 144 144" xml:space="preserve">
<circle fill="#4E598F" cx="126" cy="72" r="72"/>
<path fill="#364270" d="M197.886,67.978l-33.912-33.923c-0.562,0.17-1.964-0.482-2.58-0.358c-14.545,2.424-28.606,0-42.667,3.879
	c-6.788,1.939-7.273,10.182-9.697,15.515c-3.394,9.697-2.909,20.364-7.273,29.576c-2.909,6.303-9.697,10.182-12.121,17.455
	c-0.809,3.033-0.761,6.857-1.675,9.757l34.025,34.009C123.315,143.96,124.653,144,126,144c39.764,0,72-32.236,72-72
	C198,70.65,197.96,69.309,197.886,67.978z"/>
<g>
	<path fill="#FFFFFF" d="M156.105,30.787H95.894c-6.134,0-11.107,4.972-11.107,11.107v60.211c0,6.134,4.972,11.107,11.107,11.107
		h29.695l0.051-29.453h-7.653c-0.994,0-1.802-0.804-1.805-1.799l-0.037-9.495c-0.004-0.999,0.806-1.812,1.806-1.812h7.639v-9.174
		c0-10.646,6.502-16.443,15.999-16.443h7.793c0.996,0,1.806,0.808,1.806,1.806v8.005c0,0.997-0.808,1.806-1.804,1.806l-4.783,0.003
		c-5.165,0-6.165,2.454-6.165,6.056v7.942h11.349c1.082,0,1.921,0.944,1.793,2.017l-1.125,9.495
		c-0.107,0.909-0.878,1.593-1.793,1.593h-10.172l-0.051,29.454h17.67c6.134,0,11.107-4.973,11.107-11.107V41.894
		C167.212,35.76,162.239,30.787,156.105,30.787L156.105,30.787z"/>
	<polygon fill="#FFFFFF" points="125.59,113.211 125.641,83.758 125.515,83.758 125.515,113.211 	"/>
</g>
<path fill="#D1D1D1" d="M156.105,30.787h-30.59v39.865h0.076v-9.174c0-10.646,6.502-16.443,15.999-16.443h7.793
	c0.996,0,1.806,0.808,1.806,1.806v8.005c0,0.997-0.808,1.806-1.804,1.806l-4.783,0.003c-5.165,0-6.165,2.454-6.165,6.056v7.942
	h11.349c1.082,0,1.921,0.944,1.793,2.017l-1.125,9.495c-0.107,0.909-0.878,1.593-1.793,1.593h-10.172l-0.051,29.454h17.67
	c6.134,0,11.107-4.973,11.107-11.107V41.894C167.212,35.76,162.239,30.787,156.105,30.787z"/>
</svg>
