<?xml version="1.0" encoding="utf-8"?>
<!-- Generator: Adobe Illustrator 17.0.0, SVG Export Plug-In . SVG Version: 6.00 Build 0)  -->
<!DOCTYPE svg PUBLIC "-//W3C//DTD SVG 1.1//EN" "http://www.w3.org/Graphics/SVG/1.1/DTD/svg11.dtd">
<svg version="1.1" id="Layer_1" xmlns="http://www.w3.org/2000/svg" xmlns:xlink="http://www.w3.org/1999/xlink" x="0px" y="0px"
	 width="144px" height="144px" viewBox="54 0 144 144" enable-background="new 54 0 144 144" xml:space="preserve">
<circle fill="#6C27B3" cx="126" cy="72" r="72"/>
<path fill="#501A96" d="M159.387,37.384c-8.603,1.089-17.572,1.051-26.599,0.192c-12.606-0.97-31.03-6.788-37.818,4.848
	c-10.905,18.629-5.526,42.479-2.985,63.584l37.895,37.887c36.672-1.947,66.062-31.333,68.015-68.003L159.387,37.384z"/>
<g>
	<path fill="#FFFFFF" d="M142.658,30.788h-33.315c-13.539,0-24.554,11.015-24.554,24.554v33.315
		c0,13.539,11.015,24.555,24.555,24.555h33.315c13.539,0,24.555-11.015,24.555-24.555V55.342
		C167.212,41.803,156.197,30.788,142.658,30.788L142.658,30.788z M158.92,88.658c0,8.981-7.281,16.262-16.262,16.262h-33.315
		c-8.981,0-16.262-7.281-16.262-16.262V55.342c0-8.981,7.281-16.263,16.262-16.263h33.315c8.981,0,16.262,7.282,16.262,16.263
		C158.92,55.342,158.92,88.658,158.92,88.658z"/>
	<path fill="#FFFFFF" d="M126,50.682c-11.755,0-21.318,9.564-21.318,21.318c0,11.754,9.564,21.317,21.318,21.317
		S147.317,83.755,147.317,72S137.755,50.682,126,50.682L126,50.682z M126,85.026c-7.194,0-13.026-5.831-13.026-13.026
		c0-7.194,5.832-13.026,13.026-13.026c7.194,0,13.026,5.832,13.026,13.026C139.026,79.194,133.194,85.026,126,85.026L126,85.026z"/>
</g>
<g>
	<path fill="#D1D1D1" d="M152.466,50.843c0,2.821-2.287,5.108-5.108,5.108c-2.821,0-5.108-2.287-5.108-5.108
		c0-2.821,2.287-5.108,5.108-5.108C150.18,45.734,152.466,48.021,152.466,50.843L152.466,50.843z"/>
	<path fill="#D1D1D1" d="M142.658,30.788h-16.819v8.292h16.819c8.981,0,16.262,7.282,16.262,16.263v33.315
		c0,8.981-7.281,16.262-16.262,16.262h-16.819v8.292h16.819c13.539,0,24.554-11.015,24.554-24.555V55.342
		C167.212,41.803,156.197,30.788,142.658,30.788z"/>
	<path fill="#D1D1D1" d="M126,50.682c-0.054,0-0.107,0.004-0.161,0.004v8.292c0.054-0.001,0.107-0.004,0.161-0.004
		c7.194,0,13.026,5.832,13.026,13.026c0,7.194-5.831,13.026-13.026,13.026c-0.054,0-0.108-0.003-0.161-0.004v8.292
		c0.054,0.001,0.107,0.004,0.161,0.004c11.755,0,21.317-9.563,21.317-21.317C147.317,60.245,137.755,50.682,126,50.682z"/>
</g>
</svg>
