<?xml version="1.0" encoding="utf-8"?>
<!-- Generator: Adobe Illustrator 17.0.0, SVG Export Plug-In . SVG Version: 6.00 Build 0)  -->
<!DOCTYPE svg PUBLIC "-//W3C//DTD SVG 1.1//EN" "http://www.w3.org/Graphics/SVG/1.1/DTD/svg11.dtd">
<svg version="1.1" id="Layer_1" xmlns="http://www.w3.org/2000/svg" xmlns:xlink="http://www.w3.org/1999/xlink" x="0px" y="0px"
	 width="144px" height="144px" viewBox="54 0 144 144" enable-background="new 54 0 144 144" xml:space="preserve">
<circle fill="#4376B1" cx="126" cy="72" r="72"/>
<path fill="#336699" d="M197.723,65.709l-32.706-32.747c-19.979,2.598-40.857,2.21-60.836,2.675c-8.242,0-16.485,3.879-15.03,13.091
	c2.909,18.424,4.364,36.364,0.97,55.272c-0.534,2.403-1.659,4.806-3.127,7.048l32.672,32.672c2.087,0.182,4.199,0.28,6.333,0.28
	c39.764,0,72-32.236,72-72C198,69.879,197.903,67.782,197.723,65.709z"/>
<path fill="#FFFFFF" d="M159.756,30.788H92.244c-4.118,0-7.456,3.338-7.456,7.456v67.512c0,4.117,3.338,7.456,7.456,7.456h67.512
	c4.117,0,7.456-3.339,7.456-7.456V38.244C167.212,34.125,163.873,30.788,159.756,30.788L159.756,30.788z M110.293,101.958
	c0,1.199-0.971,2.17-2.17,2.17h-9.235c-1.199,0-2.17-0.972-2.17-2.17V63.241c0-1.199,0.972-2.17,2.17-2.17h9.236
	c1.199,0,2.17,0.972,2.17,2.17L110.293,101.958L110.293,101.958z M103.505,57.42c-4.846,0-8.774-3.929-8.774-8.775
	c0-4.846,3.928-8.774,8.774-8.774c4.846,0,8.774,3.929,8.774,8.774C112.28,53.492,108.352,57.42,103.505,57.42L103.505,57.42z
	 M158.561,102.132c0,1.102-0.893,1.996-1.994,1.996h-9.912c-1.101,0-1.995-0.894-1.995-1.996V83.971
	c0-2.708,0.795-11.872-7.08-11.872c-6.108,0-7.347,6.272-7.596,9.085v20.947c0,1.102-0.893,1.996-1.995,1.996h-9.586
	c-1.102,0-1.996-0.894-1.996-1.996V63.066c0-1.102,0.894-1.996,1.996-1.996h9.586c1.102,0,1.995,0.894,1.995,1.996v3.378
	c2.265-3.399,5.631-6.023,12.797-6.023c15.869,0,15.779,14.827,15.779,22.974L158.561,102.132L158.561,102.132L158.561,102.132z"/>
<path fill="#D1D1D1" d="M159.756,30.788h-33.917V61.07h2.151c1.102,0,1.995,0.894,1.995,1.996v3.378
	c2.265-3.399,5.631-6.023,12.798-6.023c15.869,0,15.779,14.827,15.779,22.974v18.738c0,1.102-0.893,1.996-1.994,1.996h-9.912
	c-1.101,0-1.995-0.894-1.995-1.996V83.971c0-2.708,0.795-11.872-7.08-11.872c-6.108,0-7.347,6.272-7.596,9.085v20.947
	c0,1.102-0.893,1.996-1.995,1.996h-2.151v9.085h33.918c4.117,0,7.456-3.339,7.456-7.456V38.244
	C167.212,34.125,163.873,30.788,159.756,30.788z"/>
</svg>
