<?xml version="1.0" encoding="utf-8"?>
<!-- Generator: Adobe Illustrator 17.0.0, SVG Export Plug-In . SVG Version: 6.00 Build 0)  -->
<!DOCTYPE svg PUBLIC "-//W3C//DTD SVG 1.1//EN" "http://www.w3.org/Graphics/SVG/1.1/DTD/svg11.dtd">
<svg version="1.1" id="Layer_1" xmlns="http://www.w3.org/2000/svg" xmlns:xlink="http://www.w3.org/1999/xlink" x="0px" y="0px"
	 width="144px" height="144px" viewBox="54 0 144 144" enable-background="new 54 0 144 144" xml:space="preserve">
<circle fill="#65A2D9" cx="126" cy="72" r="72"/>
<path fill="#3A7CA5" d="M164.535,39.185c-7.51,6.516-14.977,12.227-21.081,20.208c-15.013,18.105-33.36,43.791-58.327,39.962
	l44.609,44.549c37.816-1.933,67.921-33.045,68.255-71.262L164.535,39.185z"/>
<path fill="#FFFFFF" d="M165.902,45.695c-1.832,0.813-3.732,1.453-5.684,1.917c2.15-2.042,3.766-4.597,4.677-7.449
	c0.26-0.814-0.624-1.518-1.359-1.082c-2.714,1.61-5.637,2.817-8.689,3.589c-0.177,0.045-0.359,0.068-0.543,0.068
	c-0.557,0-1.096-0.206-1.522-0.581c-3.246-2.861-7.422-4.437-11.758-4.437c-1.876,0-3.77,0.292-5.629,0.869
	c-5.762,1.787-10.208,6.54-11.604,12.404c-0.523,2.199-0.664,4.401-0.421,6.543c0.027,0.246-0.088,0.418-0.16,0.498
	c-0.127,0.141-0.305,0.222-0.491,0.222c-0.02,0-0.042-0.001-0.063-0.003c-12.613-1.172-23.987-7.248-32.026-17.11
	c-0.409-0.503-1.196-0.441-1.523,0.119c-1.574,2.702-2.406,5.791-2.406,8.934c0,4.817,1.936,9.357,5.298,12.667
	c-1.414-0.336-2.782-0.863-4.054-1.57c-0.615-0.341-1.372,0.098-1.38,0.802c-0.087,7.156,4.103,13.524,10.38,16.392
	c-0.127,0.003-0.253,0.004-0.38,0.004c-0.995,0-2.003-0.095-2.994-0.285c-0.693-0.131-1.275,0.525-1.06,1.196
	c2.038,6.361,7.514,11.05,14.068,12.113c-5.439,3.651-11.774,5.577-18.366,5.577l-2.055-0.001c-0.634,0-1.17,0.413-1.33,1.027
	c-0.159,0.603,0.133,1.241,0.674,1.555c7.428,4.323,15.902,6.608,24.508,6.608c7.533,0,14.579-1.494,20.944-4.443
	c5.835-2.703,10.99-6.566,15.324-11.483c4.038-4.58,7.195-9.868,9.384-15.716c2.086-5.573,3.189-11.522,3.189-17.2v-0.271
	c0-0.912,0.412-1.769,1.132-2.354c2.73-2.217,5.108-4.826,7.066-7.755C167.568,46.288,166.752,45.318,165.902,45.695L165.902,45.695
	z"/>
<path fill="#D1D1D1" d="M165.902,45.695c-1.832,0.813-3.732,1.453-5.684,1.917c2.15-2.042,3.766-4.597,4.678-7.449
	c0.26-0.814-0.624-1.518-1.359-1.082c-2.714,1.61-5.637,2.817-8.689,3.589c-0.177,0.045-0.359,0.068-0.543,0.068
	c-0.557,0-1.096-0.206-1.522-0.581c-3.246-2.861-7.422-4.437-11.758-4.437c-1.876,0-3.77,0.292-5.629,0.869
	c-4.028,1.249-7.409,3.951-9.558,7.466v57.79c1.75-0.571,3.457-1.238,5.118-2.008c5.835-2.703,10.99-6.566,15.324-11.483
	c4.038-4.581,7.195-9.868,9.384-15.716c2.086-5.573,3.189-11.522,3.189-17.2v-0.271c0-0.912,0.412-1.769,1.132-2.354
	c2.73-2.217,5.107-4.826,7.066-7.755C167.568,46.288,166.752,45.318,165.902,45.695z"/>
</svg>
