<?xml version="1.0" encoding="utf-8"?>
<!-- Generator: Adobe Illustrator 17.0.0, SVG Export Plug-In . SVG Version: 6.00 Build 0)  -->
<!DOCTYPE svg PUBLIC "-//W3C//DTD SVG 1.1//EN" "http://www.w3.org/Graphics/SVG/1.1/DTD/svg11.dtd">
<svg version="1.1" id="Layer_1" xmlns="http://www.w3.org/2000/svg" xmlns:xlink="http://www.w3.org/1999/xlink" x="0px" y="0px"
	 width="144px" height="144px" viewBox="54 0 144 144" enable-background="new 54 0 144 144" xml:space="preserve">
<circle fill="#D22215" cx="126" cy="72" r="72"/>
<path fill="#A81411" d="M162.241,47.908c-2.159,0.659-4.411,1.225-6.665,1.789c-16,3.394-37.333-5.818-46.545,9.212
	c-7.683,11.951-10.109,26.907-18.849,37.593l46.683,46.683c31.07-4.702,55.624-29.26,60.321-60.331L162.241,47.908z"/>
<path fill="#FFFFFF" d="M150.089,42.844h-48.178c-9.452,0-17.115,7.663-17.115,17.115v24.084c0,9.452,7.663,17.115,17.115,17.115
	h48.178c9.452,0,17.115-7.663,17.115-17.115V59.958C167.203,50.506,159.541,42.844,150.089,42.844L150.089,42.844z M138.514,73.172
	L115.98,83.919c-0.601,0.287-1.295-0.151-1.295-0.816V60.937c0-0.675,0.712-1.112,1.313-0.807l22.534,11.419
	C139.204,71.888,139.192,72.849,138.514,73.172L138.514,73.172z"/>
<path fill="#D1D1D1" d="M150.089,42.844h-24.574v22.108l13.018,6.597c0.671,0.34,0.658,1.301-0.019,1.624l-12.999,6.2v21.785h24.574
	c9.452,0,17.115-7.663,17.115-17.115V59.958C167.203,50.506,159.541,42.844,150.089,42.844z"/>
</svg>
