<?xml version="1.0" encoding="utf-8"?>
<!-- Generator: Adobe Illustrator 17.0.0, SVG Export Plug-In . SVG Version: 6.00 Build 0)  -->
<!DOCTYPE svg PUBLIC "-//W3C//DTD SVG 1.1//EN" "http://www.w3.org/Graphics/SVG/1.1/DTD/svg11.dtd">
<svg version="1.1" id="Layer_1" xmlns="http://www.w3.org/2000/svg" xmlns:xlink="http://www.w3.org/1999/xlink" x="0px" y="0px"
	 width="100px" height="32.691px" viewBox="3022 987.927 100 32.691" enable-background="new 3022 987.927 100 32.691"
	 xml:space="preserve">
<g>
	<path d="M3122,1016.218c0,2.441-1.979,4.421-4.419,4.421h-91.16c-2.441,0-4.42-1.98-4.42-4.421v-23.87
		c0-2.441,1.979-4.421,4.42-4.421h91.16c2.441,0,4.419,1.98,4.419,4.421L3122,1016.218L3122,1016.218z"/>
	<g id="PLAY_2_">
		<g>
			<defs>
				<path id="SVGID_1_" d="M3043.671,1002.326l-4.509-2.603c0,0-8.215-4.743-8.698-5.022c-0.483-0.279-0.964-0.11-0.964,0.473
					c0,0.971,0,10.127,0,10.127s0,9.896,0,10.333c0,0.437,0.344,0.625,0.764,0.383c0.419-0.242,8.898-5.138,8.898-5.138l4.509-2.603
					c0,0,3.826-2.209,4.334-2.502c0.509-0.294,0.459-0.697,0.031-0.928C3047.607,1004.615,3043.671,1002.326,3043.671,1002.326z"/>
			</defs>
			<clipPath id="SVGID_2_">
				<use xlink:href="#SVGID_1_"  overflow="visible"/>
			</clipPath>
			
				<linearGradient id="SVGID_3_" gradientUnits="userSpaceOnUse" x1="3064.1855" y1="1020.2158" x2="3064.1855" y2="1018.3698" gradientTransform="matrix(12 0 0 -12 -33735.1406 13236.8135)">
				<stop  offset="0" style="stop-color:#257CB0"/>
				<stop  offset="0.2863" style="stop-color:#4A93B5"/>
				<stop  offset="0.767" style="stop-color:#78BCBB"/>
				<stop  offset="1" style="stop-color:#89CFBD"/>
			</linearGradient>
			<polygon clip-path="url(#SVGID_2_)" fill="url(#SVGID_3_)" points="3029.501,994.225 3029.501,1005.301 3029.501,1016.377 
				3040.671,1005.301 			"/>
		</g>
		<g>
			<defs>
				<path id="SVGID_4_" d="M3043.671,1002.326l-4.509-2.603c0,0-8.215-4.743-8.698-5.022c-0.483-0.279-0.964-0.11-0.964,0.473
					c0,0.971,0,10.127,0,10.127s0,9.896,0,10.333c0,0.437,0.344,0.625,0.764,0.383c0.419-0.242,8.898-5.138,8.898-5.138l4.509-2.603
					c0,0,3.826-2.209,4.334-2.502c0.509-0.294,0.459-0.697,0.031-0.928C3047.607,1004.615,3043.671,1002.326,3043.671,1002.326z"/>
			</defs>
			<clipPath id="SVGID_5_">
				<use xlink:href="#SVGID_4_"  overflow="visible"/>
			</clipPath>
			
				<linearGradient id="SVGID_6_" gradientUnits="userSpaceOnUse" x1="3063.72" y1="1019.7576" x2="3064.9009" y2="1019.7576" gradientTransform="matrix(12 0 0 -12 -33735.1406 13236.8135)">
				<stop  offset="0" style="stop-color:#52C1AD"/>
				<stop  offset="1" style="stop-color:#DEE89A"/>
			</linearGradient>
			<polygon clip-path="url(#SVGID_5_)" fill="url(#SVGID_6_)" points="3043.671,1002.326 3039.162,999.723 3029.501,994.144 
				3029.501,994.225 3040.671,1005.301 			"/>
		</g>
		<g>
			<defs>
				<path id="SVGID_7_" d="M3043.671,1002.326l-4.509-2.603c0,0-8.215-4.743-8.698-5.022c-0.483-0.279-0.964-0.11-0.964,0.473
					c0,0.971,0,10.127,0,10.127s0,9.896,0,10.333c0,0.437,0.344,0.625,0.764,0.383c0.419-0.242,8.898-5.138,8.898-5.138l4.509-2.603
					c0,0,3.826-2.209,4.334-2.502c0.509-0.294,0.459-0.697,0.031-0.928C3047.607,1004.615,3043.671,1002.326,3043.671,1002.326z"/>
			</defs>
			<clipPath id="SVGID_8_">
				<use xlink:href="#SVGID_7_"  overflow="visible"/>
			</clipPath>
			
				<linearGradient id="SVGID_9_" gradientUnits="userSpaceOnUse" x1="3064.3105" y1="1019.2927" x2="3064.3105" y2="1018.363" gradientTransform="matrix(12 0 0 -12 -33735.1406 13236.8135)">
				<stop  offset="0" style="stop-color:#EC413D"/>
				<stop  offset="0.1668" style="stop-color:#DA4452"/>
				<stop  offset="0.5748" style="stop-color:#B0487A"/>
				<stop  offset="0.8619" style="stop-color:#954A92"/>
				<stop  offset="1" style="stop-color:#8A4A9D"/>
			</linearGradient>
			<polygon clip-path="url(#SVGID_8_)" fill="url(#SVGID_9_)" points="3029.501,1016.377 3029.501,1016.458 3039.162,1010.879 
				3043.671,1008.276 3040.671,1005.301 			"/>
		</g>
		<g>
			<defs>
				<path id="SVGID_10_" d="M3043.671,1002.326l-4.509-2.603c0,0-8.215-4.743-8.698-5.022c-0.483-0.279-0.964-0.11-0.964,0.473
					c0,0.971,0,10.127,0,10.127s0,9.896,0,10.333c0,0.437,0.344,0.625,0.764,0.383c0.419-0.242,8.898-5.138,8.898-5.138l4.509-2.603
					c0,0,3.826-2.209,4.334-2.502c0.509-0.294,0.459-0.697,0.031-0.928C3047.607,1004.615,3043.671,1002.326,3043.671,1002.326z"/>
			</defs>
			<clipPath id="SVGID_11_">
				<use xlink:href="#SVGID_10_"  overflow="visible"/>
			</clipPath>
			
				<linearGradient id="SVGID_12_" gradientUnits="userSpaceOnUse" x1="3064.9907" y1="1019.5406" x2="3064.9907" y2="1019.0449" gradientTransform="matrix(12 0 0 -12 -33735.1406 13236.8135)">
				<stop  offset="0" style="stop-color:#F58879"/>
				<stop  offset="0.1194" style="stop-color:#F69079"/>
				<stop  offset="0.7128" style="stop-color:#FCB877"/>
				<stop  offset="1" style="stop-color:#FEC874"/>
			</linearGradient>
			<polygon clip-path="url(#SVGID_11_)" fill="url(#SVGID_12_)" points="3043.671,1002.326 3040.671,1005.301 3043.671,1008.276 
				3048.824,1005.301 			"/>
		</g>
	</g>
	<path fill="#F9F9F9" d="M3099.825,1009.631c-0.419,0-0.802-0.077-1.149-0.232c-0.347-0.155-0.638-0.393-0.873-0.714h-0.07
		c0.047,0.376,0.07,0.733,0.07,1.07v2.651h-0.975v-9.334h0.793l0.135,0.882h0.047c0.251-0.353,0.543-0.607,0.876-0.764
		s0.715-0.235,1.146-0.235c0.854,0,1.514,0.292,1.978,0.876c0.464,0.584,0.697,1.403,0.697,2.457c0,1.058-0.236,1.88-0.708,2.466
		C3101.319,1009.339,3100.664,1009.631,3099.825,1009.631z M3099.684,1003.783c-0.658,0-1.134,0.182-1.428,0.547
		c-0.294,0.364-0.445,0.944-0.453,1.74v0.217c0,0.905,0.151,1.553,0.453,1.943c0.302,0.39,0.786,0.585,1.452,0.585
		c0.557,0,0.993-0.225,1.308-0.676c0.315-0.45,0.473-1.072,0.473-1.864c0-0.803-0.158-1.42-0.473-1.849
		C3100.7,1003.997,3100.256,1003.783,3099.684,1003.783z"/>
	<path fill="#F9F9F9" d="M3104.759,1009.514h-0.976v-9.146h0.976V1009.514z"/>
	<path fill="#F9F9F9" d="M3110.368,1009.514l-0.194-0.917h-0.047c-0.322,0.404-0.642,0.677-0.961,0.82
		c-0.319,0.143-0.718,0.215-1.196,0.215c-0.639,0-1.139-0.165-1.502-0.494c-0.363-0.329-0.544-0.797-0.544-1.405
		c0-1.301,1.041-1.983,3.121-2.046l1.094-0.035v-0.4c0-0.506-0.109-0.879-0.327-1.12c-0.217-0.241-0.565-0.362-1.043-0.362
		c-0.537,0-1.145,0.165-1.822,0.494l-0.3-0.746c0.318-0.172,0.665-0.308,1.044-0.406c0.378-0.098,0.757-0.147,1.137-0.147
		c0.768,0,1.337,0.17,1.708,0.511c0.37,0.341,0.555,0.888,0.555,1.64v4.396L3110.368,1009.514L3110.368,1009.514z
		 M3108.164,1008.826c0.607,0,1.084-0.167,1.431-0.5c0.346-0.333,0.52-0.799,0.52-1.399v-0.582l-0.976,0.041
		c-0.776,0.028-1.335,0.148-1.678,0.362c-0.343,0.214-0.514,0.546-0.514,0.996c0,0.353,0.106,0.621,0.321,0.805
		C3107.481,1008.734,3107.78,1008.826,3108.164,1008.826z"/>
	<path fill="#F9F9F9" d="M3111.658,1003.072h1.046l1.411,3.674c0.309,0.839,0.502,1.444,0.576,1.817h0.047
		c0.051-0.2,0.158-0.542,0.32-1.026c0.163-0.484,0.695-1.972,1.596-4.464h1.047l-2.769,7.336c-0.274,0.725-0.594,1.239-0.961,1.544
		c-0.366,0.303-0.816,0.455-1.349,0.455c-0.298,0-0.592-0.033-0.882-0.1v-0.782c0.216,0.047,0.457,0.071,0.723,0.071
		c0.67,0,1.148-0.376,1.434-1.129l0.358-0.917L3111.658,1003.072z"/>
	<path fill="#F9F9F9" d="M3081.75,1003.67c0.31,0.256,0.956,0.795,0.956,1.819c0,0.997-0.566,1.469-1.132,1.913
		c-0.175,0.175-0.377,0.364-0.377,0.661c0,0.296,0.202,0.458,0.351,0.579l0.485,0.377c0.593,0.499,1.131,0.957,1.131,1.887
		c0,1.267-1.226,2.546-3.543,2.546c-1.954,0-2.897-0.929-2.897-1.927c0-0.485,0.241-1.172,1.038-1.644
		c0.835-0.512,1.968-0.579,2.573-0.62c-0.189-0.242-0.404-0.498-0.404-0.915c0-0.229,0.068-0.364,0.135-0.526
		c-0.149,0.014-0.297,0.027-0.432,0.027c-1.428,0-2.236-1.065-2.236-2.115c0-0.62,0.283-1.308,0.862-1.806
		c0.768-0.633,1.685-0.741,2.413-0.741h2.775l-0.862,0.485L3081.75,1003.67L3081.75,1003.67z M3080.793,1009.653
		c-0.108-0.014-0.176-0.014-0.31-0.014c-0.121,0-0.85,0.028-1.415,0.217c-0.296,0.107-1.159,0.43-1.159,1.388
		c0,0.956,0.93,1.644,2.372,1.644c1.293,0,1.981-0.621,1.981-1.456C3082.262,1010.743,3081.817,1010.381,3080.793,1009.653z
		 M3081.184,1007.093c0.31-0.31,0.336-0.741,0.336-0.984c0-0.97-0.579-2.479-1.697-2.479c-0.351,0-0.728,0.175-0.943,0.445
		c-0.229,0.283-0.297,0.646-0.297,0.997c0,0.903,0.525,2.399,1.685,2.399C3080.604,1007.47,3080.968,1007.308,3081.184,1007.093z"/>
	<path fill="#F9F9F9" d="M3073.267,1009.438c-2.139,0-3.282-1.668-3.282-3.175c0-1.763,1.439-3.269,3.485-3.269
		c1.977,0,3.214,1.547,3.214,3.175C3076.684,1007.755,3075.46,1009.438,3073.267,1009.438z M3074.948,1008.348
		c0.323-0.431,0.404-0.969,0.404-1.494c0-1.184-0.565-3.444-2.233-3.444c-0.444,0-0.888,0.175-1.21,0.458
		c-0.525,0.47-0.619,1.062-0.619,1.642c0,1.331,0.659,3.523,2.288,3.523C3074.101,1009.033,3074.64,1008.778,3074.948,1008.348z"/>
	<path fill="#F9F9F9" d="M3065.975,1009.438c-2.139,0-3.283-1.668-3.283-3.175c0-1.763,1.44-3.269,3.485-3.269
		c1.977,0,3.215,1.547,3.215,3.175C3069.392,1007.755,3068.168,1009.438,3065.975,1009.438z M3067.657,1008.348
		c0.323-0.431,0.404-0.969,0.404-1.494c0-1.184-0.565-3.444-2.234-3.444c-0.444,0-0.888,0.175-1.21,0.458
		c-0.525,0.47-0.619,1.062-0.619,1.642c0,1.331,0.659,3.523,2.287,3.523C3066.81,1009.033,3067.348,1008.778,3067.657,1008.348z"/>
	<path fill="#F9F9F9" d="M3061.665,1009.227l-1.934,0.446c-0.785,0.122-1.488,0.229-2.231,0.229c-3.733,0-5.153-2.746-5.153-4.896
		c0-2.624,2.015-5.057,5.464-5.057c0.731,0,1.433,0.108,2.069,0.284c1.014,0.284,1.488,0.635,1.785,0.839l-1.123,1.068l-0.473,0.108
		l0.338-0.541c-0.459-0.446-1.299-1.271-2.894-1.271c-2.137,0-3.747,1.624-3.747,3.99c0,2.542,1.84,4.936,4.788,4.936
		c0.866,0,1.312-0.176,1.718-0.338v-2.177l-2.042,0.108l1.082-0.582h2.868l-0.352,0.338c-0.095,0.081-0.108,0.109-0.135,0.216
		c-0.014,0.122-0.027,0.515-0.027,0.65L3061.665,1009.227L3061.665,1009.227z"/>
	<path fill="#F9F9F9" d="M3086.025,1008.837c-0.447-0.041-0.54-0.121-0.54-0.649v-0.149v-7.506c0.003-0.029,0.004-0.059,0.007-0.087
		c0.055-0.473,0.19-0.554,0.609-0.798h-1.935l-1.015,0.487h1.034v0.006l-0.001-0.005v7.903v0.447c0,0.27-0.053,0.311-0.365,0.716
		h2.394l0.5-0.297C3086.485,1008.877,3086.255,1008.864,3086.025,1008.837z"/>
	<path fill="#F9F9F9" d="M3091.528,1008.961c-0.147,0.081-0.295,0.175-0.442,0.242c-0.444,0.201-0.901,0.255-1.304,0.255
		c-0.429,0-1.101-0.028-1.787-0.524c-0.953-0.672-1.369-1.827-1.369-2.834c0-2.082,1.692-3.102,3.076-3.102
		c0.484,0,0.981,0.121,1.384,0.376c0.671,0.442,0.846,1.02,0.939,1.329l-3.156,1.276l-1.035,0.081
		c0.335,1.706,1.49,2.699,2.767,2.699c0.685,0,1.182-0.241,1.638-0.469L3091.528,1008.961z M3090.266,1004.958
		c0.255-0.094,0.389-0.175,0.389-0.362c0-0.537-0.604-1.155-1.33-1.155c-0.538,0-1.544,0.417-1.544,1.867
		c0,0.228,0.027,0.47,0.041,0.713L3090.266,1004.958z"/>
	<path fill="#F9F9F9" d="M3092.825,1003.09v0.886h-0.108v-0.886h-0.293v-0.092h0.694v0.092H3092.825z"/>
	<path fill="#F9F9F9" d="M3094.033,1003.976v-0.894h-0.005l-0.273,0.894h-0.084l-0.275-0.894h-0.003v0.894h-0.098v-0.978h0.167
		l0.249,0.791h0.003l0.245-0.791h0.17v0.978H3094.033z"/>
	<path fill="#F9F9FA" d="M3055.032,997.315h-0.672c0-0.092-0.064-0.354-0.191-0.786h-0.97c-0.132,0.424-0.198,0.686-0.198,0.786
		h-0.632c0-0.055,0.163-0.503,0.49-1.344s0.49-1.305,0.49-1.39h0.794c0,0.08,0.148,0.536,0.444,1.37
		C3054.884,996.785,3055.032,997.239,3055.032,997.315z M3054.062,996.128c-0.24-0.722-0.359-1.113-0.359-1.172h-0.034
		c0,0.055-0.124,0.445-0.372,1.172H3054.062z"/>
	<path fill="#F9F9FA" d="M3057.74,997.315h-0.519c0-0.057-0.193-0.361-0.578-0.909c-0.403-0.578-0.633-0.974-0.689-1.187h-0.034
		c0.035,0.307,0.053,0.584,0.053,0.832c0,0.346,0.01,0.767,0.029,1.264h-0.517c0.021-0.434,0.031-0.911,0.031-1.43
		c0-0.511-0.01-0.946-0.031-1.304h0.624c0,0.074,0.173,0.37,0.519,0.888c0.368,0.55,0.58,0.923,0.634,1.12h0.031
		c-0.034-0.312-0.05-0.592-0.05-0.84c0-0.379-0.01-0.769-0.029-1.168h0.525c-0.02,0.347-0.029,0.782-0.029,1.304
		C3057.711,996.411,3057.721,996.888,3057.74,997.315z"/>
	<path fill="#F9F9FA" d="M3060.784,995.853c0,0.398-0.127,0.745-0.382,1.042c-0.255,0.297-0.612,0.445-1.071,0.445
		c-0.207,0-0.493-0.008-0.857-0.025c0.018-0.423,0.027-0.9,0.027-1.43c0-0.509-0.009-0.944-0.027-1.304h0.368
		c0.06,0,0.15-0.002,0.269-0.006c0.119-0.004,0.197-0.006,0.233-0.006c0.505,0,0.872,0.126,1.1,0.378
		C3060.671,995.198,3060.784,995.5,3060.784,995.853z M3060.211,995.943c0-0.269-0.078-0.495-0.235-0.68
		c-0.157-0.184-0.396-0.276-0.718-0.276c-0.06,0-0.143,0.006-0.248,0.019c0.014,0.28,0.021,0.573,0.021,0.878
		c0,0.335,0.007,0.667,0.021,0.996c0.091,0.018,0.182,0.027,0.273,0.027c0.301,0,0.524-0.094,0.669-0.281
		C3060.138,996.44,3060.211,996.212,3060.211,995.943z"/>
	<path fill="#F9F9FA" d="M3063.592,997.315h-0.622c-0.162-0.496-0.287-0.802-0.374-0.918c-0.087-0.116-0.227-0.174-0.42-0.174
		c-0.081,0-0.159,0.001-0.233,0.002c0,0.36,0.006,0.723,0.019,1.09h-0.584c0.018-0.423,0.027-0.9,0.027-1.43
		c0-0.509-0.009-0.944-0.027-1.304h0.363c0.042,0,0.13-0.002,0.263-0.006s0.257-0.006,0.371-0.006c0.643,0,0.964,0.22,0.964,0.659
		c0,0.349-0.183,0.591-0.55,0.729v0.031c0.141,0.039,0.265,0.15,0.372,0.331C3063.267,996.5,3063.411,996.832,3063.592,997.315z
		 M3062.804,995.383c0-0.279-0.179-0.418-0.538-0.418c-0.132,0-0.248,0.01-0.349,0.029c0.015,0.217,0.023,0.5,0.023,0.849
		c0.077,0.003,0.142,0.004,0.195,0.004C3062.581,995.847,3062.804,995.692,3062.804,995.383z"/>
	<path fill="#F9F9FA" d="M3066.602,995.897c0,0.43-0.132,0.786-0.395,1.069c-0.263,0.283-0.589,0.424-0.977,0.424
		c-0.37,0-0.679-0.13-0.928-0.39c-0.249-0.26-0.374-0.59-0.374-0.99c0-0.43,0.132-0.786,0.395-1.069
		c0.263-0.283,0.589-0.424,0.977-0.424c0.37,0,0.679,0.129,0.928,0.388S3066.602,995.495,3066.602,995.897z M3066.022,995.958
		c0-0.293-0.075-0.53-0.225-0.712c-0.15-0.182-0.335-0.273-0.554-0.273c-0.205,0-0.378,0.092-0.521,0.275
		c-0.143,0.183-0.214,0.415-0.214,0.695c0,0.291,0.075,0.528,0.226,0.711c0.15,0.183,0.335,0.274,0.553,0.274
		c0.204,0,0.378-0.092,0.521-0.276C3065.951,996.468,3066.022,996.237,3066.022,995.958z"/>
	<path fill="#F9F9FA" d="M3067.79,997.315h-0.594c0.018-0.434,0.027-0.911,0.027-1.43c0-0.511-0.009-0.946-0.027-1.304h0.594
		c-0.018,0.353-0.027,0.787-0.027,1.304C3067.762,996.412,3067.771,996.889,3067.79,997.315z"/>
	<path fill="#F9F9FA" d="M3070.833,995.853c0,0.398-0.127,0.745-0.382,1.042c-0.255,0.297-0.612,0.445-1.071,0.445
		c-0.207,0-0.493-0.008-0.857-0.025c0.018-0.423,0.027-0.9,0.027-1.43c0-0.509-0.009-0.944-0.027-1.304h0.368
		c0.06,0,0.15-0.002,0.269-0.006c0.119-0.004,0.197-0.006,0.233-0.006c0.505,0,0.872,0.126,1.1,0.378
		C3070.72,995.198,3070.833,995.5,3070.833,995.853z M3070.26,995.943c0-0.269-0.078-0.495-0.235-0.68
		c-0.157-0.184-0.396-0.276-0.718-0.276c-0.06,0-0.143,0.006-0.248,0.019c0.014,0.28,0.021,0.573,0.021,0.878
		c0,0.335,0.007,0.667,0.021,0.996c0.091,0.018,0.182,0.027,0.273,0.027c0.301,0,0.524-0.094,0.669-0.281
		C3070.188,996.44,3070.26,996.212,3070.26,995.943z"/>
	<path fill="#F9F9FA" d="M3074.872,997.315h-0.672c0-0.092-0.064-0.354-0.191-0.786h-0.97c-0.132,0.424-0.198,0.686-0.198,0.786
		h-0.632c0-0.055,0.164-0.503,0.49-1.344s0.49-1.305,0.49-1.39h0.794c0,0.08,0.148,0.536,0.444,1.37
		C3074.724,996.785,3074.872,997.239,3074.872,997.315z M3073.902,996.128c-0.24-0.722-0.359-1.113-0.359-1.172h-0.034
		c0,0.055-0.124,0.445-0.372,1.172H3073.902z"/>
	<path fill="#F9F9FA" d="M3077.322,995.296c0,0.335-0.124,0.582-0.373,0.741c-0.249,0.159-0.553,0.24-0.915,0.24
		c-0.066,0-0.113-0.001-0.141-0.004c0,0.263,0.008,0.61,0.023,1.042h-0.59c0.018-0.404,0.027-0.881,0.027-1.43
		c0-0.504-0.009-0.939-0.027-1.304h0.365c0.052,0,0.151-0.002,0.298-0.006s0.274-0.006,0.382-0.006c0.266,0,0.491,0.06,0.674,0.181
		S3077.322,995.051,3077.322,995.296z M3076.78,995.412c0-0.299-0.199-0.449-0.596-0.449c-0.1,0-0.205,0.011-0.315,0.031
		c0.015,0.265,0.023,0.564,0.023,0.899c0.035,0.003,0.076,0.004,0.122,0.004C3076.524,995.897,3076.78,995.736,3076.78,995.412z"/>
	<path fill="#F9F9FA" d="M3079.841,995.296c0,0.335-0.124,0.582-0.373,0.741c-0.248,0.159-0.553,0.24-0.915,0.24
		c-0.066,0-0.113-0.001-0.141-0.004c0,0.263,0.008,0.61,0.023,1.042h-0.59c0.018-0.404,0.027-0.881,0.027-1.43
		c0-0.504-0.009-0.939-0.027-1.304h0.365c0.052,0,0.151-0.002,0.298-0.006c0.147-0.004,0.274-0.006,0.382-0.006
		c0.266,0,0.491,0.06,0.674,0.181C3079.749,994.869,3079.841,995.051,3079.841,995.296z M3079.299,995.412
		c0-0.299-0.199-0.449-0.597-0.449c-0.099,0-0.204,0.011-0.315,0.031c0.016,0.265,0.023,0.564,0.023,0.899
		c0.035,0.003,0.076,0.004,0.122,0.004C3079.043,995.897,3079.299,995.736,3079.299,995.412z"/>
	<path fill="#F9F9FA" d="M3083.959,995.897c0,0.43-0.132,0.786-0.395,1.069c-0.263,0.283-0.589,0.424-0.977,0.424
		c-0.37,0-0.679-0.13-0.928-0.39c-0.249-0.26-0.374-0.59-0.374-0.99c0-0.43,0.132-0.786,0.395-1.069
		c0.263-0.283,0.589-0.424,0.977-0.424c0.37,0,0.679,0.129,0.928,0.388S3083.959,995.495,3083.959,995.897z M3083.38,995.958
		c0-0.293-0.075-0.53-0.225-0.712c-0.15-0.182-0.335-0.273-0.554-0.273c-0.204,0-0.378,0.092-0.521,0.275
		c-0.143,0.183-0.214,0.415-0.214,0.695c0,0.291,0.075,0.528,0.226,0.711c0.151,0.183,0.335,0.274,0.553,0.274
		c0.205,0,0.378-0.092,0.521-0.276C3083.308,996.468,3083.38,996.237,3083.38,995.958z"/>
	<path fill="#F9F9FA" d="M3086.806,997.315h-0.519c0-0.057-0.192-0.361-0.577-0.909c-0.403-0.578-0.633-0.974-0.689-1.187h-0.033
		c0.035,0.307,0.052,0.584,0.052,0.832c0,0.346,0.01,0.767,0.029,1.264h-0.517c0.021-0.434,0.031-0.911,0.031-1.43
		c0-0.511-0.011-0.946-0.031-1.304h0.624c0,0.074,0.173,0.37,0.519,0.888c0.368,0.55,0.58,0.923,0.634,1.12h0.031
		c-0.034-0.312-0.051-0.592-0.051-0.84c0-0.379-0.01-0.769-0.029-1.168h0.525c-0.02,0.347-0.029,0.782-0.029,1.304
		C3086.777,996.411,3086.786,996.888,3086.806,997.315z"/>
</g>
</svg>
