<?xml version="1.0" encoding="utf-8"?>
<!-- Generator: Adobe Illustrator 17.0.0, SVG Export Plug-In . SVG Version: 6.00 Build 0)  -->
<!DOCTYPE svg PUBLIC "-//W3C//DTD SVG 1.1//EN" "http://www.w3.org/Graphics/SVG/1.1/DTD/svg11.dtd">
<svg version="1.1" id="Capa_1" xmlns="http://www.w3.org/2000/svg" xmlns:xlink="http://www.w3.org/1999/xlink" x="0px" y="0px"
	 width="38.298px" height="50px" viewBox="0 0 38.298 50" enable-background="new 0 0 38.298 50" xml:space="preserve">
<g>
	<rect x="7.978" y="15.426" fill="#FFFFFF" width="2.66" height="2.66"/>
	<rect x="7.978" y="22.872" fill="#FFFFFF" width="2.66" height="2.66"/>
	<rect x="7.978" y="30.319" fill="#FFFFFF" width="2.66" height="2.66"/>
	<rect x="7.978" y="37.766" fill="#FFFFFF" width="2.66" height="2.66"/>
	<path fill="#FFFFFF" d="M26.595,39.096c0-0.441,0.357-0.798,0.798-0.798h9.309V1.596H1.596v46.809h25v-9.309H26.595z
		 M31.116,32.447H14.627c-0.441,0-0.798-0.357-0.798-0.798c0-0.441,0.357-0.798,0.798-0.798h16.489c0.441,0,0.798,0.357,0.798,0.798
		C31.914,32.09,31.557,32.447,31.116,32.447z M31.116,25H14.627c-0.441,0-0.798-0.357-0.798-0.798s0.357-0.798,0.798-0.798h16.489
		c0.441,0,0.798,0.357,0.798,0.798S31.557,25,31.116,25z M15.819,8.511h15.296c0.441,0,0.798,0.357,0.798,0.798
		s-0.357,0.798-0.798,0.798H15.819c-0.441,0-0.798-0.357-0.798-0.798C15.022,8.868,15.379,8.511,15.819,8.511z M31.116,15.957
		c0.441,0,0.798,0.357,0.798,0.798s-0.357,0.798-0.798,0.798H14.627c-0.441,0-0.798-0.357-0.798-0.798s0.357-0.798,0.798-0.798
		C14.627,15.957,31.116,15.957,31.116,15.957z M7.148,9.276c0.312-0.311,0.817-0.311,1.128,0l1.032,1.032l3.691-3.691
		c0.312-0.311,0.817-0.311,1.128,0c0.312,0.312,0.312,0.817,0,1.128L9.872,12c-0.156,0.156-0.36,0.234-0.564,0.234
		S8.9,12.156,8.744,12l-1.596-1.595C6.836,10.093,6.836,9.588,7.148,9.276z M12.233,41.223c0,0.441-0.357,0.798-0.798,0.798H7.18
		c-0.441,0-0.798-0.357-0.798-0.798v-4.255c0-0.441,0.357-0.798,0.798-0.798h4.255c0.441,0,0.798,0.357,0.798,0.798V41.223z
		 M12.233,33.777c0,0.441-0.357,0.798-0.798,0.798H7.18c-0.441,0-0.798-0.357-0.798-0.798v-4.255c0-0.441,0.357-0.798,0.798-0.798
		h4.255c0.441,0,0.798,0.357,0.798,0.798V33.777z M12.233,26.33c0,0.441-0.357,0.798-0.798,0.798H7.18
		c-0.441,0-0.798-0.357-0.798-0.798v-4.255c0-0.441,0.357-0.798,0.798-0.798h4.255c0.441,0,0.798,0.357,0.798,0.798V26.33z
		 M12.233,18.883c0,0.441-0.357,0.798-0.798,0.798H7.18c-0.441,0-0.798-0.357-0.798-0.798v-4.255c0-0.441,0.357-0.798,0.798-0.798
		h4.255c0.441,0,0.798,0.357,0.798,0.798V18.883z M24.201,39.894h-9.574c-0.441,0-0.798-0.357-0.798-0.798s0.357-0.798,0.798-0.798
		h9.574c0.441,0,0.798,0.357,0.798,0.798C24.999,39.536,24.642,39.894,24.201,39.894z"/>
	<path fill="#085977" d="M38.127,39.587c0.012-0.016,0.024-0.031,0.035-0.047c0.003-0.004,0.005-0.009,0.008-0.014
		c0.011-0.017,0.022-0.035,0.032-0.054c0.002-0.003,0.003-0.007,0.005-0.01c0.01-0.02,0.02-0.04,0.029-0.061
		c0.001-0.002,0.002-0.005,0.003-0.007c0.009-0.022,0.017-0.044,0.024-0.066c0.001-0.003,0.001-0.006,0.002-0.008
		c0.007-0.022,0.012-0.044,0.017-0.067c0.001-0.006,0.002-0.013,0.003-0.019c0.003-0.019,0.007-0.038,0.009-0.058
		c0.003-0.026,0.004-0.053,0.004-0.08V0.798C38.298,0.357,37.941,0,37.5,0H0.798C0.357,0,0,0.357,0,0.798v48.404
		C0,49.643,0.357,50,0.798,50h26.596c0.027,0,0.053-0.001,0.08-0.004c0.02-0.002,0.039-0.005,0.058-0.009
		c0.006-0.001,0.013-0.002,0.019-0.003c0.023-0.005,0.045-0.011,0.067-0.017c0.003-0.001,0.006-0.001,0.008-0.002
		c0.022-0.007,0.044-0.015,0.065-0.023c0.003-0.001,0.006-0.002,0.009-0.003c0.02-0.008,0.039-0.018,0.059-0.028
		c0.004-0.002,0.008-0.004,0.012-0.006c0.018-0.009,0.034-0.02,0.051-0.031c0.005-0.003,0.011-0.006,0.016-0.01
		c0.016-0.01,0.03-0.022,0.045-0.033c0.006-0.005,0.012-0.009,0.018-0.013c0.018-0.015,0.035-0.031,0.052-0.047
		c0.002-0.002,0.004-0.004,0.006-0.006l10.106-10.106c0.002-0.002,0.003-0.003,0.004-0.005c0.017-0.017,0.033-0.034,0.048-0.053
		C38.12,39.597,38.123,39.592,38.127,39.587z M1.595,1.596h35.106v36.702h-9.309c-0.441,0-0.798,0.357-0.798,0.798v9.309h-25V1.596
		H1.595z M28.19,39.894h7.382l-7.382,7.382C28.19,47.276,28.19,39.894,28.19,39.894z"/>
	<path fill="#989FA8" d="M15.819,10.106h15.296c0.441,0,0.798-0.357,0.798-0.798S31.556,8.51,31.115,8.51H15.819
		c-0.441,0-0.798,0.357-0.798,0.798C15.022,9.749,15.379,10.106,15.819,10.106z"/>
	<path fill="#989FA8" d="M8.743,12c0.156,0.156,0.36,0.234,0.564,0.234S9.715,12.156,9.871,12l4.255-4.255
		c0.312-0.312,0.312-0.817,0-1.128c-0.312-0.311-0.817-0.311-1.128,0l-3.691,3.691L8.275,9.276c-0.312-0.311-0.817-0.311-1.128,0
		c-0.312,0.312-0.312,0.817,0,1.128L8.743,12z"/>
	<path fill="#989FA8" d="M13.829,16.755c0,0.441,0.357,0.798,0.798,0.798h16.489c0.441,0,0.798-0.357,0.798-0.798
		s-0.357-0.798-0.798-0.798H14.627C14.186,15.957,13.829,16.315,13.829,16.755z"/>
	<path fill="#989FA8" d="M11.435,13.83H7.18c-0.441,0-0.798,0.357-0.798,0.798v4.255c0,0.441,0.357,0.798,0.798,0.798h4.255
		c0.441,0,0.798-0.357,0.798-0.798v-4.255C12.233,14.187,11.876,13.83,11.435,13.83z M10.637,18.085h-2.66v-2.66h2.66V18.085z"/>
	<path fill="#989FA8" d="M31.116,23.404H14.627c-0.441,0-0.798,0.357-0.798,0.798S14.186,25,14.627,25h16.489
		c0.441,0,0.798-0.357,0.798-0.798S31.557,23.404,31.116,23.404z"/>
	<path fill="#989FA8" d="M11.435,21.277H7.18c-0.441,0-0.798,0.357-0.798,0.798v4.255c0,0.441,0.357,0.798,0.798,0.798h4.255
		c0.441,0,0.798-0.357,0.798-0.798v-4.255C12.233,21.634,11.876,21.277,11.435,21.277z M10.637,25.532h-2.66v-2.66h2.66V25.532z"/>
	<path fill="#989FA8" d="M31.116,30.851H14.627c-0.441,0-0.798,0.357-0.798,0.798s0.357,0.798,0.798,0.798h16.489
		c0.441,0,0.798-0.357,0.798-0.798S31.557,30.851,31.116,30.851z"/>
	<path fill="#989FA8" d="M11.435,28.723H7.18c-0.441,0-0.798,0.357-0.798,0.798v4.255c0,0.441,0.357,0.798,0.798,0.798h4.255
		c0.441,0,0.798-0.357,0.798-0.798v-4.255C12.233,29.081,11.876,28.723,11.435,28.723z M10.637,32.979h-2.66v-2.66h2.66V32.979z"/>
	<path fill="#989FA8" d="M24.201,38.298h-9.574c-0.441,0-0.798,0.357-0.798,0.798s0.357,0.798,0.798,0.798h9.574
		c0.441,0,0.798-0.357,0.798-0.798S24.642,38.298,24.201,38.298z"/>
	<path fill="#989FA8" d="M11.435,36.17H7.18c-0.441,0-0.798,0.357-0.798,0.798v4.255c0,0.441,0.357,0.798,0.798,0.798h4.255
		c0.441,0,0.798-0.357,0.798-0.798v-4.255C12.233,36.527,11.876,36.17,11.435,36.17z M10.637,40.426h-2.66v-2.66h2.66V40.426z"/>
</g>
</svg>
