<?xml version="1.0" encoding="utf-8"?>
<!-- Generator: Adobe Illustrator 17.0.0, SVG Export Plug-In . SVG Version: 6.00 Build 0)  -->
<!DOCTYPE svg PUBLIC "-//W3C//DTD SVG 1.1//EN" "http://www.w3.org/Graphics/SVG/1.1/DTD/svg11.dtd">
<svg version="1.1" id="Capa_1" xmlns="http://www.w3.org/2000/svg" xmlns:xlink="http://www.w3.org/1999/xlink" x="0px" y="0px"
	 width="50px" height="50px" viewBox="0 0 50 50" enable-background="new 0 0 50 50" xml:space="preserve">
<rect x="22.951" y="34.5" fill="#989FA8" width="1.299" height="14.667"/>
<rect x="25.785" y="34.5" fill="#989FA8" width="1.299" height="14.667"/>
<path fill="#085977" d="M50,25C50,11.215,38.785,0,25,0S0,11.215,0,25c0,5.118,1.548,9.881,4.198,13.848l-0.002,0.018l0.173,0.253
	c0.15,0.219,0.312,0.427,0.468,0.64c0.063,0.087,0.126,0.174,0.191,0.261c0.198,0.263,0.403,0.522,0.61,0.776
	c0.06,0.073,0.121,0.146,0.182,0.218c0.964,1.154,2.022,2.211,3.161,3.162c0.069,0.058,0.137,0.116,0.208,0.173
	c0.248,0.202,0.499,0.401,0.755,0.593c0.103,0.078,0.208,0.154,0.313,0.231c0.243,0.178,0.487,0.355,0.737,0.524
	c0.133,0.091,0.272,0.176,0.407,0.264c0.347,0.225,0.697,0.442,1.053,0.649c0.248,0.145,0.498,0.289,0.752,0.426
	c0.153,0.082,0.31,0.159,0.465,0.238c0.271,0.138,0.543,0.272,0.818,0.401c0.139,0.064,0.278,0.127,0.418,0.189
	c0.319,0.142,0.643,0.276,0.968,0.404c0.101,0.04,0.201,0.081,0.303,0.12c0.894,0.338,1.813,0.628,2.752,0.863
	c0.038,0.01,0.077,0.018,0.116,0.027c0.415,0.102,0.834,0.192,1.257,0.273c0.112,0.022,0.225,0.041,0.338,0.061
	c0.353,0.063,0.708,0.118,1.067,0.165c0.137,0.018,0.272,0.036,0.409,0.053c0.349,0.04,0.701,0.072,1.054,0.097
	c0.132,0.01,0.262,0.022,0.394,0.03C24.039,49.983,24.518,50,25,50c0.483,0,0.961-0.017,1.437-0.044
	c0.132-0.007,0.262-0.021,0.394-0.03c0.353-0.026,0.705-0.057,1.054-0.097c0.137-0.016,0.273-0.034,0.409-0.053
	c0.358-0.048,0.713-0.103,1.067-0.165c0.112-0.02,0.225-0.039,0.337-0.061c0.423-0.081,0.842-0.172,1.257-0.273
	c0.038-0.009,0.077-0.018,0.116-0.027c0.939-0.235,1.857-0.525,2.752-0.863c0.102-0.038,0.202-0.08,0.304-0.12
	c0.326-0.128,0.648-0.262,0.967-0.403c0.14-0.062,0.28-0.125,0.418-0.189c0.276-0.128,0.548-0.262,0.818-0.401
	c0.155-0.079,0.312-0.157,0.465-0.238c0.254-0.137,0.503-0.281,0.752-0.426c0.357-0.207,0.708-0.424,1.053-0.649
	c0.136-0.088,0.273-0.173,0.407-0.264c0.249-0.169,0.492-0.346,0.737-0.524c0.104-0.077,0.209-0.152,0.313-0.231
	c0.255-0.192,0.507-0.391,0.755-0.593c0.07-0.058,0.138-0.116,0.207-0.173c1.139-0.952,2.197-2.007,3.162-3.162
	c0.061-0.073,0.121-0.144,0.18-0.217c0.208-0.254,0.412-0.513,0.61-0.776c0.065-0.086,0.127-0.173,0.191-0.261
	c0.156-0.213,0.318-0.421,0.468-0.64l0.173-0.253l-0.002-0.018C48.452,34.881,50,30.118,50,25z M48.333,25
	c0,4.143-1.091,8.035-2.993,11.412c-1.427-4.728-5.792-8.078-10.915-8.078h-0.747H29.47c-0.168,0-0.305-0.137-0.305-0.304v-0.537
	c0-0.152,0.124-0.253,0.23-0.293c5.366-2.017,8.713-10.387,8.011-16.24c-0.366-3.048-1.876-5.772-4.069-7.746
	C42.098,6.577,48.333,15.072,48.333,25z M43.782,38.825c-0.067,0.091-0.135,0.181-0.203,0.271c-0.186,0.244-0.373,0.487-0.568,0.723
	c-0.02,0.024-0.041,0.048-0.061,0.072c-0.673,0.81-1.401,1.573-2.176,2.286c-0.046,0.043-0.092,0.086-0.138,0.128
	c-0.231,0.209-0.467,0.412-0.707,0.613c-0.075,0.063-0.151,0.124-0.227,0.186c-0.233,0.189-0.467,0.375-0.706,0.555
	c-0.081,0.061-0.164,0.118-0.246,0.178c-0.137,0.101-0.277,0.198-0.416,0.296V40h-1.667v5.194c-0.033,0.019-0.065,0.037-0.098,0.057
	c-0.212,0.122-0.424,0.243-0.64,0.357c-0.148,0.078-0.298,0.154-0.447,0.23c-0.252,0.127-0.505,0.249-0.761,0.367
	c-0.125,0.058-0.249,0.115-0.375,0.17c-0.321,0.14-0.645,0.273-0.972,0.399c-0.068,0.026-0.133,0.054-0.201,0.079
	c-0.833,0.312-1.685,0.577-2.553,0.792c-0.063,0.016-0.126,0.028-0.188,0.043c-0.359,0.086-0.722,0.164-1.086,0.232
	c-0.108,0.021-0.217,0.039-0.326,0.058c-0.323,0.057-0.648,0.106-0.975,0.148c-0.126,0.017-0.252,0.034-0.378,0.048
	c-0.323,0.037-0.648,0.065-0.975,0.089c-0.121,0.008-0.241,0.021-0.363,0.028c-0.442,0.027-0.885,0.042-1.33,0.042
	s-0.887-0.015-1.329-0.04c-0.122-0.007-0.242-0.019-0.363-0.027c-0.326-0.024-0.652-0.052-0.975-0.089
	c-0.127-0.014-0.252-0.032-0.378-0.048c-0.327-0.043-0.652-0.092-0.975-0.148c-0.108-0.019-0.217-0.037-0.326-0.058
	c-0.364-0.069-0.727-0.147-1.086-0.233c-0.063-0.015-0.125-0.028-0.188-0.043c-0.868-0.216-1.72-0.48-2.553-0.792
	c-0.068-0.025-0.134-0.053-0.201-0.079c-0.327-0.126-0.65-0.259-0.971-0.399c-0.126-0.055-0.251-0.113-0.376-0.17
	c-0.256-0.117-0.509-0.24-0.761-0.367c-0.15-0.076-0.3-0.151-0.448-0.23c-0.216-0.114-0.428-0.236-0.64-0.357
	c-0.033-0.019-0.066-0.037-0.098-0.057V40h-1.667v4.132c-0.14-0.097-0.279-0.196-0.416-0.296c-0.082-0.06-0.165-0.118-0.246-0.178
	c-0.239-0.18-0.473-0.366-0.705-0.554c-0.077-0.062-0.152-0.124-0.228-0.187c-0.239-0.199-0.475-0.403-0.706-0.612
	c-0.047-0.042-0.093-0.087-0.14-0.129c-0.775-0.713-1.503-1.475-2.175-2.285c-0.02-0.024-0.041-0.048-0.061-0.072
	c-0.195-0.237-0.382-0.479-0.568-0.723c-0.068-0.09-0.137-0.18-0.203-0.271c-0.1-0.136-0.197-0.274-0.293-0.412
	C6.575,33.595,10.668,30,15.572,30h2.413L25,37.012L32.012,30h2.413c4.904,0,8.997,3.594,9.65,8.413
	C43.978,38.551,43.883,38.689,43.782,38.825z M21.243,25.659c-3.985-1.474-7.076-8.284-7.076-13.159
	c0-0.107,0.012-0.211,0.015-0.317l0.61-0.752c1.376-1.637,3.724-2.105,5.843-1.167c0.853,0.378,1.76,0.569,2.698,0.569
	c2.476,0,4.7-1.346,5.857-3.487c2.652,0.871,5.018,2.513,6.619,4.582c0.244,5.083-2.745,12.111-6.998,13.71
	c-0.797,0.3-1.311,1.028-1.311,1.853v0.538c0,1.086,0.885,1.971,1.971,1.971h0.184L25,34.655L20.345,30h0.184
	c1.086,0,1.971-0.885,1.971-1.971V27.5C22.5,26.678,21.996,25.938,21.243,25.659z M25.033,1.668c0.01,0,0.018,0,0.027,0
	c0.408,0.003,0.808,0.025,1.192,0.069c4.133,0.461,7.606,3.338,8.96,7.158c-1.763-1.535-3.923-2.717-6.248-3.356l-0.717-0.197
	L27.97,6.03c-0.768,1.904-2.588,3.136-4.638,3.136c-0.704,0-1.385-0.143-2.022-0.426c-2.305-1.02-4.822-0.744-6.681,0.608
	c0.511-1.688,1.433-3.235,2.717-4.517C19.393,2.792,22.108,1.668,25.033,1.668z M16.652,3.217c-0.161,0.145-0.327,0.282-0.482,0.436
	C13.803,6.015,12.5,9.156,12.5,12.5c0,5.524,3.492,12.994,8.164,14.722c0.099,0.037,0.169,0.152,0.169,0.278v0.529
	c0,0.168-0.137,0.304-0.304,0.304h-4.207h-0.747c-5.123,0-9.489,3.35-10.916,8.078c-1.902-3.377-2.993-7.268-2.993-11.412
	C1.667,15.075,7.898,6.583,16.652,3.217z"/>
</svg>
