<?xml version="1.0" encoding="utf-8"?>
<!-- Generator: Adobe Illustrator 16.0.0, SVG Export Plug-In . SVG Version: 6.00 Build 0)  -->
<!DOCTYPE svg PUBLIC "-//W3C//DTD SVG 1.1//EN" "http://www.w3.org/Graphics/SVG/1.1/DTD/svg11.dtd">
<svg version="1.1" id="Layer_1" xmlns="http://www.w3.org/2000/svg" xmlns:xlink="http://www.w3.org/1999/xlink" x="0px" y="0px"
	 width="58.641px" height="75.483px" viewBox="7.184 0.249 58.641 75.483" enable-background="new 7.184 0.249 58.641 75.483"
	 xml:space="preserve">
<image display="none" overflow="visible" enable-background="new    " width="604" height="505" xlink:href="85B5A08E.png"  transform="matrix(0.1497 0 0 0.1501 -2.441406e-004 0)">
</image>
<image display="none" overflow="visible" enable-background="new    " width="680" height="699" xlink:href="85B5A092.png"  transform="matrix(0.1069 0 0 0.1086 8.8669 4.882813e-004)">
</image>
<g>
	<g>
		<path d="M7.184,70.325c0-12.822,0-25.646,0-38.466c0.601-1.971,1.888-3.04,3.196-4.076c2.494-1.981,5.197-3.232,8.083-3.803
			c6.133-1.209,11.964-0.158,17.34,4.059c0.515,0.404,0.875,0.422,1.396,0.009c3.463-2.758,7.246-4.201,11.299-4.474
			c5.107-0.34,9.945,0.832,14.346,4.376c1.274,1.026,2.545,2.082,2.981,4.133c0,12.821,0,25.646,0,38.467
			c-0.656,2.017-1.904,2.321-3.447,2.302c-6.444-0.08-12.89-0.024-19.333-0.047c-0.782-0.002-1.428,0.225-2.081,0.842
			c-2.937,2.775-5.959,2.78-8.897,0.019c-0.651-0.61-1.292-0.863-2.077-0.86c-6.504,0.023-13.007-0.037-19.51,0.051
			C8.887,72.874,7.708,72.432,7.184,70.325z M34.318,48.875c0-4.573-0.056-9.146,0.032-13.719c0.03-1.472-0.387-2.22-1.324-2.883
			c-3.911-2.768-8.094-3.698-12.478-3.139c-2.904,0.37-5.659,1.448-8.149,3.501c-0.507,0.418-0.894,0.841-0.893,1.75
			c0.019,9.635,0.009,19.268,0.016,28.9c0.001,1.152,0.293,1.374,1.146,0.945c0.619-0.313,1.22-0.69,1.851-0.949
			c6.288-2.586,12.503-2.42,18.631,0.873c0.986,0.531,1.164,0.38,1.165-0.997C34.32,58.396,34.318,53.636,34.318,48.875z
			 M38.69,48.813c0,4.723-0.002,9.445,0,14.168c0,1.61,0.137,1.709,1.284,1.113c6.69-3.474,13.388-3.496,20.083-0.021
			c1.254,0.651,1.432,0.516,1.432-1.288c0.001-9.184-0.026-18.368,0.029-27.551c0.009-1.445-0.369-2.247-1.308-2.935
			c-3.946-2.899-8.192-3.739-12.633-3.136c-2.843,0.386-5.524,1.518-7.999,3.428c-0.63,0.487-0.919,1.04-0.91,2.053
			C38.716,39.367,38.69,44.09,38.69,48.813z"/>
		<path d="M7.184,20.161c0.439-1.663,1.499-2.392,2.635-3.121c8.356-5.376,16.702-10.782,25.032-16.227
			c1.143-0.747,2.145-0.752,3.28-0.013c8.541,5.566,17.1,11.095,25.652,16.629c0.761,0.492,1.545,0.974,1.771,2.15
			c0.199,1.029,0.097,2.026-0.564,2.786c-0.764,0.88-1.646,0.888-2.513,0.375c-1.312-0.78-2.592-1.649-3.883-2.487
			c-7.026-4.557-14.06-9.098-21.068-13.698c-0.764-0.502-1.345-0.451-2.083,0.031c-8.179,5.34-16.379,10.618-24.554,15.965
			c-1.56,1.02-3.344,0.345-3.551-1.901c-0.01-0.094-0.101-0.176-0.152-0.263C7.184,20.311,7.184,20.236,7.184,20.161z"/>
	</g>
</g>
</svg>
