<?xml version="1.0" encoding="utf-8"?>
<!-- Generator: Adobe Illustrator 17.0.0, SVG Export Plug-In . SVG Version: 6.00 Build 0)  -->
<!DOCTYPE svg PUBLIC "-//W3C//DTD SVG 1.1//EN" "http://www.w3.org/Graphics/SVG/1.1/DTD/svg11.dtd">
<svg version="1.1" id="Capa_1" xmlns="http://www.w3.org/2000/svg" xmlns:xlink="http://www.w3.org/1999/xlink" x="0px" y="0px"
	 width="50px" height="50px" viewBox="0 0 50 50" enable-background="new 0 0 50 50" xml:space="preserve">
<g>
	<path fill="#989FA8" d="M37.969,24.312l-18.333-12.5c-0.256-0.173-0.586-0.192-0.859-0.048s-0.443,0.427-0.443,0.737v25
		c0,0.309,0.171,0.592,0.444,0.737c0.122,0.065,0.256,0.097,0.389,0.097c0.164,0,0.328-0.049,0.469-0.145l18.333-12.5
		c0.228-0.155,0.364-0.413,0.364-0.688S38.197,24.467,37.969,24.312z M20,35.923V14.078L36.021,25L20,35.923z"/>
	<path fill="#085977" d="M25,0C11.215,0,0,11.215,0,25s11.215,25,25,25s25-11.215,25-25S38.785,0,25,0z M25,48.333
		C12.134,48.333,1.667,37.866,1.667,25S12.134,1.667,25,1.667S48.333,12.134,48.333,25S37.866,48.333,25,48.333z"/>
</g>
</svg>
