<?xml version="1.0" encoding="utf-8"?>
<!-- Generator: Adobe Illustrator 17.0.0, SVG Export Plug-In . SVG Version: 6.00 Build 0)  -->
<!DOCTYPE svg PUBLIC "-//W3C//DTD SVG 1.1//EN" "http://www.w3.org/Graphics/SVG/1.1/DTD/svg11.dtd">
<svg version="1.1" id="Layer_1" xmlns="http://www.w3.org/2000/svg" xmlns:xlink="http://www.w3.org/1999/xlink" x="0px" y="0px"
	 width="46.67px" height="50px" viewBox="0 0 46.67 50" enable-background="new 0 0 46.67 50" xml:space="preserve">
<g>
	<g>
		<g>
			<path fill="#989FA8" d="M35.001,30.832c0-0.46-0.373-0.833-0.833-0.833h-5c-0.46,0-0.833,0.373-0.833,0.833
				s0.373,0.833,0.833,0.833h5C34.628,31.666,35.001,31.292,35.001,30.832z"/>
			<path fill="#085977" d="M31.668,9.166V4.999c0-0.46-0.373-0.833-0.833-0.833s-0.833,0.373-0.833,0.833v4.167
				c0,2.297,1.869,4.167,4.167,4.167h7.5v15.833c0,0.46,0.373,0.833,0.833,0.833s0.833-0.373,0.833-0.833V12.499
				c0-0.46-0.373-0.833-0.833-0.833h-8.333C32.789,11.666,31.668,10.543,31.668,9.166z"/>
			<path fill="#989FA8" d="M34.168,19.999h-6.667c-0.46,0-0.833,0.373-0.833,0.833s0.373,0.833,0.833,0.833h6.667
				c0.46,0,0.833-0.373,0.833-0.833S34.628,19.999,34.168,19.999z"/>
			<path fill="#989FA8" d="M25.001,20.832c0-0.46-0.373-0.833-0.833-0.833h-5c-0.46,0-0.833,0.373-0.833,0.833
				s0.373,0.833,0.833,0.833h5C24.628,21.666,25.001,21.292,25.001,20.832z"/>
			<path fill="#989FA8" d="M19.168,24.999c-0.46,0-0.833,0.373-0.833,0.833s0.373,0.833,0.833,0.833h1.667
				c0.46,0,0.833-0.373,0.833-0.833s-0.374-0.833-0.834-0.833H19.168z"/>
			<path fill="#989FA8" d="M19.168,16.666h8.333c0.46,0,0.833-0.373,0.833-0.833S27.961,15,27.501,15h-8.333
				c-0.46,0-0.833,0.373-0.833,0.833C18.334,16.292,18.708,16.666,19.168,16.666z"/>
			<path fill="#989FA8" d="M24.168,26.666h8.333c0.46,0,0.833-0.373,0.833-0.833S32.961,25,32.501,25h-8.333
				c-0.46,0-0.833,0.373-0.833,0.833C23.334,26.292,23.708,26.666,24.168,26.666z"/>
			<path fill="#989FA8" d="M29.168,34.999c-0.46,0-0.833,0.373-0.833,0.833s0.373,0.833,0.833,0.833h1.667
				c0.46,0,0.833-0.373,0.833-0.833s-0.374-0.833-0.834-0.833H29.168z"/>
			<path fill="#989FA8" d="M25.834,29.999h-6.667c-0.46,0-0.833,0.373-0.833,0.833s0.373,0.833,0.833,0.833h6.667
				c0.46,0,0.833-0.373,0.833-0.833C26.668,30.372,26.294,29.999,25.834,29.999z"/>
			<path fill="#989FA8" d="M25.834,34.999h-6.667c-0.46,0-0.833,0.373-0.833,0.833s0.373,0.833,0.833,0.833h6.667
				c0.46,0,0.833-0.373,0.833-0.833S26.294,34.999,25.834,34.999z"/>
			<path fill="#085977" d="M45.675,34.324l-1.667-1.667c-1.281-1.281-3.233-1.278-4.512,0L28.578,43.575
				c-0.156,0.156-0.244,0.368-0.244,0.589v5c0,0.46,0.373,0.833,0.833,0.833h5c0.221,0,0.433-0.088,0.589-0.244l10.918-10.918
				C47.003,37.509,47.003,35.653,45.675,34.324z M38.419,36.092l1.322,1.322l-7.24,7.24l-1.322-1.322L38.419,36.092z M30.001,48.332
				V44.51l3.822,3.822C33.823,48.332,30.001,48.332,30.001,48.332z M35.001,47.153l-1.322-1.322l7.24-7.24l1.322,1.322
				L35.001,47.153z M44.497,37.657l-1.078,1.078l-3.822-3.822l1.078-1.078c0.658-0.658,1.493-0.661,2.155,0l1.667,1.667
				C45.171,36.178,45.171,36.984,44.497,37.657z"/>
			<path fill="#085977" d="M25.834,48.332H4.167c-1.378,0-2.5-1.122-2.5-2.5V4.166c0-1.378,1.122-2.5,2.5-2.5h26.322l8.089,8.089
				c0.326,0.326,0.853,0.326,1.178,0c0.326-0.326,0.326-0.853,0-1.178l-8.333-8.333C31.267,0.086,31.055,0,30.834,0H4.167
				C1.87,0,0,1.868,0,4.167v41.667C0,48.13,1.869,50,4.167,50h21.667c0.46,0,0.833-0.373,0.833-0.833S26.294,48.332,25.834,48.332z"
				/>
			<path fill="#989FA8" d="M25.834,39.999h-6.667c-0.46,0-0.833,0.373-0.833,0.833s0.373,0.833,0.833,0.833h6.667
				c0.46,0,0.833-0.373,0.833-0.833S26.294,39.999,25.834,39.999z"/>
			<path fill="#989FA8" d="M15.001,15.832c0-0.46-0.373-0.833-0.833-0.833h-5c-0.46,0-0.833,0.373-0.833,0.833v5
				c0,0.46,0.373,0.833,0.833,0.833h5c0.46,0,0.833-0.373,0.833-0.833V15.832z M13.335,19.999h-3.333v-3.333h3.333V19.999z"/>
			<path fill="#989FA8" d="M9.168,41.666h5c0.46,0,0.833-0.373,0.833-0.833v-5c0-0.46-0.373-0.833-0.833-0.833h-5
				c-0.46,0-0.833,0.373-0.833,0.833v5C8.335,41.292,8.708,41.666,9.168,41.666z M10.001,36.666h3.333v3.333h-3.333V36.666z"/>
			<path fill="#989FA8" d="M10.245,31.421c0.157,0.157,0.369,0.244,0.589,0.244c0.028,0,0.054-0.001,0.083-0.004
				c0.248-0.024,0.472-0.159,0.611-0.367l3.333-5c0.255-0.383,0.152-0.901-0.231-1.156c-0.384-0.256-0.9-0.152-1.156,0.231
				l-2.769,4.154l-0.948-0.947c-0.326-0.326-0.853-0.326-1.178,0c-0.326,0.326-0.326,0.853,0,1.178L10.245,31.421z"/>
		</g>
	</g>
</g>
</svg>
